<svg xmlns="http://www.w3.org/2000/svg" xmlns:xlink="http://www.w3.org/1999/xlink" width="875.031" height="885.313" viewBox="0 0 875.031 885.313">
  <defs>
    <style>
       .cls-1 {
        fill-rule: evenodd;
        fill: #4a427c;
      } 
    </style>
 
  </defs>
  <path class="cls-1" d="M605.786,919q0.038-31.752.071-63.5,0.014-112.007.071-224.012a11.083,11.083,0,0,0-3.585-8.794c-7.8-7.508-15.421-15.207-22.96-22.979-2.336-2.409-4.314-3.133-7.76-1.9-9.725,3.486-19.872-2.99-20.345-14.63-0.244-6.015,3.185-10.7,8.534-13.7a16.645,16.645,0,0,1,2.723-1.229,2.15,2.15,0,0,0,1.509-2.29c0.019-1.167.04-2.333,0.04-3.5q0-48.751,0-97.5c0-.333,0-0.667,0-1-0.056-3.908-.045-3.94-4.173-5.394a14.718,14.718,0,0,1-9.848-10.37,14.564,14.564,0,0,1,5.026-15.972,12.585,12.585,0,0,1,6.651-3.173,2.3,2.3,0,0,0,2.31-2.649c-0.012-1,.013-2,0.014-3,0.017-14.5-.054-29,0.115-43.5a9.511,9.511,0,0,0-3.173-7.423q-47.758-47.656-95.4-95.428c-1.988-1.99-3.838-3.753-7.194-3.7a6.987,6.987,0,0,1-7.084-5.3c-0.834-3.174-.6-6.513,2.4-8.564,2.331-1.6,2.506-3.62,2.5-6.041q-0.051-42.753.014-85.5c0-2.658-.315-4.547-3.1-6.031-3.521-1.877-4.374-5.378-3.157-8.972,1.158-3.421,3.017-4.863,6.546-5.078,3.843-.234,6.546,1.17,7.842,4.072,1.37,3.068,1.226,7.037-1.369,8.662-4.014,2.512-3.932,6.094-3.937,9.877q-0.029,23.5-.015,47c0,11.668.033,23.335-.013,35-0.011,2.778.193,4.814,3.444,6.214a6.8,6.8,0,0,1,3.345,9.682c-1.649,3.074-.617,4.73,1.489,6.823q24.468,24.3,48.787,48.755,24.024,24.042,48.089,48.041a8.424,8.424,0,0,1,2.66,6.608c-0.092,14.5-.037,29-0.03,43.5,0,1.333-.039,2.67.046,4a3.105,3.105,0,0,0,2.59,3.119,14.7,14.7,0,0,1,9.463,7.53c4.171,8.286.945,17.66-7.874,21.613-4.124,1.849-4.216,1.738-4.217,5.918q-0.015,49,0,98.005c0,1-.01,2,0.069,3,0.134,1.683.912,2.523,2.748,2.9,6.887,1.42,10.856,5.813,12.515,12.618,0.958,3.927-.479,7.207-2.148,10.452-1.862,3.62-1.992,3.595.943,6.542,7.993,8.029,15.911,16.137,24.079,23.984a10.956,10.956,0,0,1,3.59,8.732q-0.135,141.008-.061,282.014c0,2.16.144,4.32,0.221,6.48h-3Zm-40.77-485.392c-6.231.025-11,4.362-10.925,10.381a10.58,10.58,0,0,0,10.814,10.753c7.15,0.011,11.178-4.955,11.11-10.852C575.946,437.9,571.295,433.582,565.016,433.608ZM636.773,919c-0.454-8.15-.441-16.322-0.493-24.469-0.275-43.333-.172-86.669-0.352-130a11.416,11.416,0,0,1,3.827-9.159c5.917-5.615,11.454-11.627,17.262-17.359,1.531-1.512,2.41-2.868,2.064-5.176-0.831-5.541.106-10.648,4.757-14.428,1.223-1,1.158-2.314,1.158-3.638,0.006-18.334-.018-36.668.035-55,0.006-1.964-.674-3.017-2.562-3.571A8.416,8.416,0,0,1,659,654.309a8.793,8.793,0,0,1,2.722-14.755c2.86-1.113,3.43-2.444,3.314-5.049-0.148-3.327.021-6.666-.04-10-0.03-1.694.64-2.392,2.346-2.369,4.163,0.055,8.329.077,12.49-.021a5.679,5.679,0,0,1,4.332,2.079c2.7,2.716,5.444,5.393,8.133,8.122a3.79,3.79,0,0,0,4.312,1.161c5.052-1.3,8.362.982,9.273,5.621,0.746,3.8-2.55,8.09-6.518,8.485-3.489.347-7.534-2.913-7.27-6.573a9.279,9.279,0,0,0-3.889-8.572,21.181,21.181,0,0,1-1.745-1.785c-6.288-6.393-7.5-6.792-16.226-5.908-1.846.187-2.714,0.931-2.7,2.785,0.023,2.333.072,4.671-.048,7-0.136,2.653.422,4.555,2.995,6.177,4.4,2.774,4.385,11.051.03,13.877-1.9,1.235-3.069,2.594-3.051,5.169,0.125,17.833.073,35.668,0.09,53.5a14.851,14.851,0,0,0,.241,1.769h9.739c0.812-1.576.434-3.264,0.437-4.883q0.043-25.5.017-51c0-1-.017-2,0-3,0.14-6.678-.938-5.935,5.739-5.959,13.657-.048,27.315-0.018,40.972-0.02,2.165,0,4.33-.036,6.494.013a4.592,4.592,0,0,0,3.565-1.449q5.622-5.687,11.309-11.308c1.279-1.259,1.34-2.312.307-3.877-2.722-4.126-2.873-8.421.139-12.5a11.262,11.262,0,0,1,12.6-3.628c4.345,1.581,6.52,5.125,7.126,9.469,0.676,4.85-4.106,10.323-9.049,10.794a5.493,5.493,0,0,1-1.5.046c-4.578-.853-7.914.951-10.793,4.468-2.2,2.694-5.043,4.861-7.33,7.5a9.348,9.348,0,0,1-7.864,3.326c-13.655-.147-27.313-0.049-40.97-0.056-9.493,0-8.181-.283-8.194,7.931-0.029,17.167.085,34.335,0.023,51.5a9.309,9.309,0,0,0,2.713,7.078c8.774,9.3,2.624,20.944-5.348,23.62a14.772,14.772,0,0,1-5.886.567,7.66,7.66,0,0,0-6.6,2.7c-3.29,3.535-6.629,7.046-10.2,10.291a10.278,10.278,0,0,0-3.466,8.392c0.121,12.166.033,24.334,0.054,36.5,0.025,14.5-.2,29.008.188,43.5,0.636,23.826.2,47.654,0.521,71.478,0.011,0.828.144,1.655,0.22,2.482h-4c0.721-1.769.4-3.625,0.4-5.44q-0.019-55.752-.082-111.5c-0.012-13,.026-26-0.087-39a7.453,7.453,0,0,1,2.47-6.2c1.126-.985,2.14-2.1,3.194-3.165q4.571-4.619,9.133-9.244c1.228-1.241,1.556-2.353.1-3.8-2.643-2.633-2.88-2.756-5.533-.122-5.32,5.282-10.477,10.736-15.929,15.875a11.339,11.339,0,0,0-3.881,9.163c0.353,34.324-.059,68.653.756,102.978,0.356,14.993.118,30,.178,45,0.007,1.823.186,3.645,0.285,5.468h-3ZM754.958,619.687a7.723,7.723,0,1,0,8,7.195A7.794,7.794,0,0,0,754.958,619.687ZM625.778,919c0.077-1.827.222-3.654,0.222-5.482q0.018-95.257.01-190.516a11.477,11.477,0,0,1,.016-2c0.55-3.061-1.017-4.413-3.728-5.33a14.738,14.738,0,0,1-8.22-6.9c-4.434-7.846-1.368-17.884,7.153-21.24,4.059-1.6,4.9-3.66,4.861-7.554-0.182-16.166-.139-32.336-0.029-48.5,0.021-2.937-.577-4.774-3.459-6.3-5.282-2.8-6.868-7.91-4.6-13.643,1-2.532.679-4.184-1.282-6.1-9.3-9.067-18.375-18.361-27.714-27.386a12.13,12.13,0,0,1-4.05-9.571c0.116-66.006.043-132.012,0.139-198.018,0-3.79-.908-6.631-3.766-9.173-3.6-3.206-6.88-6.78-10.283-10.21-1.553-1.565-2.815-2.534-5.566-1.771-5.105,1.415-8.009-.615-9.857-5.15a5.559,5.559,0,0,1,.269-4.769,3.439,3.439,0,0,0-.911-4.37c-6.183-6.066-12.273-12.228-18.368-18.382-1.011-1.02-2-1.619-3.527-1.166a9.959,9.959,0,0,1-2.974.252c-3.981-.072-6.137-1.778-7.182-5.6a7.407,7.407,0,0,1,3.325-8.592c3.258-2.08,6.308-1.967,9.107.679,2.381,2.251,4.046,4.875,2.407,8.389a3.247,3.247,0,0,0,.922,4.026c6.407,6.315,12.757,12.687,19.115,19.052a2.949,2.949,0,0,0,3.049.78c6.475-1.139,10.244,2.2,9.815,8.79a6.557,6.557,0,0,0,2.284,5.664c4.185,4.058,8.188,8.3,12.376,12.358a6.088,6.088,0,0,1,2.251,5.231c-0.124,1.322-.021,2.665-0.021,4q0,98.76-.055,197.518a9.431,9.431,0,0,0,2.941,7.494q14.319,13.952,28.249,28.3c1.98,2.041,3.567,2.17,6.04,1.264,5.75-2.107,11.152.583,13.915,6.176,2.137,4.327.393,11.3-4.886,14.2a10.9,10.9,0,0,1-2.744,1.165c-1.624.368-2.088,1.488-2.21,2.9-0.071.828-.058,1.665-0.058,2.5q-0.008,24.252-.007,48.5c0,0.667.016,1.333,0.013,2-0.008,2.05.674,3.212,2.957,3.842A15.689,15.689,0,0,1,642.129,695a15.37,15.37,0,0,1-8.38,20.628c-4.986,2.062-5,2.062-4.994,7.355q0.008,98.009.022,196.017h-3Zm1.783-228.3c-5.911.088-11.294,5.143-10.853,10.76,0.468,5.971,4.394,10.512,11.105,10.572a10.532,10.532,0,0,0,11.048-10.574A10.654,10.654,0,0,0,627.561,690.7ZM584.795,919c0.076-1.661.22-3.322,0.22-4.982q0.016-135.771.093-271.541a11.646,11.646,0,0,0-3.889-9.121c-11.427-11.192-22.615-22.627-34.021-33.84a10.012,10.012,0,0,1-3.339-7.823q0.148-68.76.059-137.52c0-20.67-.085-41.341.073-62.009a11.193,11.193,0,0,0-3.709-8.732q-50.288-50.1-100.45-100.322a11.706,11.706,0,0,1-3.867-9.125c0.151-30.337.079-60.675,0.078-91.013a13.863,13.863,0,0,1,.032-1.5c0.29-2.676-.86-4.014-3.364-5.263a9.716,9.716,0,0,1-5.656-9.752,10.939,10.939,0,0,1,8.648-10.241c3.772-.947,9.007,1.333,11.229,4.891a10.407,10.407,0,0,1-3.876,14.988,9.277,9.277,0,0,1-2.255,1.043c-1.85.445-2.239,1.7-2.192,3.357,0.052,1.832.016,3.667,0.016,5.5,0,29,.051,58.009-0.082,87.013a11.162,11.162,0,0,0,3.567,8.759q50.3,50.078,100.469,100.294a12.318,12.318,0,0,1,4.08,9.556q-0.177,95.763-.088,191.528a20.478,20.478,0,0,1-.034,3.5c-1.093,6.24,1.683,10.516,6.1,14.73,11.088,10.572,21.694,21.65,32.6,32.415a6.723,6.723,0,0,1,2.342,5.692c-0.115,1.491-.02,3-0.02,4.5q0,134.522.01,269.041c0,1.994.143,3.988,0.22,5.982h-3ZM437.619,174.547c4.24,0.106,8.166-3.679,8.092-7.8a7.4,7.4,0,0,0-7.324-7.24c-4.543-.175-8.414,2.938-8.669,6.97C429.475,170.323,433.509,174.444,437.619,174.547ZM546.811,919c0.078-12.326.139-24.652,0.253-36.978,0.015-1.6-.787-2.856-1.309-4.243-2.317-6.163-.727-12.9,4.013-16.813a12.2,12.2,0,0,1,6.26-2.859c2.165-.281,3.171-1.562,3.015-3.786-0.082-1.161-.009-2.332-0.009-3.5q0-87.742,0-175.487c0-1-.035-2,0-3,0.067-1.779-.237-3.2-2.169-4.029a4.923,4.923,0,0,1-2.9-4.343c-0.316-3.1.9-5.611,3.336-6.587s5.854-.183,7.305,1.692c1.466,1.894,1.946,6,.033,7.418-3.831,2.848-3.054,6.618-3.055,10.315q-0.025,86.994-.012,173.988a21.545,21.545,0,0,1-.022,3c-0.381,2.683.5,4.356,3.244,5.187a22.622,22.622,0,0,1,4.311,2.393c1.439-.662.97-1.972,0.977-3.024,0.045-6.332.021-12.665,0.021-19q0-91.493,0-182.987c0-.666-0.032-1.336.02-2,0.19-2.388-.6-3.867-2.969-5.045a8.621,8.621,0,0,1-2.127-13.88,9.124,9.124,0,0,1,12.918.327c4.459,4.954,2.068,11.1-1.526,12.935-3.171,1.616-3.613,3.775-3.611,6.823q0.069,104.492.05,208.983a30.389,30.389,0,0,0,.384,4.462c1.1,7.388-2.023,13.377-9.03,16.49-1.8.8-2.672,1.61-2.65,3.566,0.112,9.992.164,19.986,0.238,29.979h-3c0.053-8.612.2-17.225,0.128-25.836-0.053-6.47,1.331-5.474-5.592-7.766-3.219-1.065-3.663-.785-3.667,2.795-0.01,10.269.083,20.538,0.135,30.807h-3Zm-10,0c0.617-1.437.38-2.957,0.4-4.444,0.66-62.987.6-125.978,0.684-188.968,0-1.5-.092-3.006.016-4.5a6.469,6.469,0,0,0-2.247-5.3c-5.074-5.052-10.124-10.132-15.078-15.3-1.5-1.56-2.737-1.831-4.765-.873a13.935,13.935,0,0,1-11.574.158c-5.229-2.176-7.952-6.181-8.22-11.948-0.289-6.2,2.244-11.2,7.817-13.19,4.677-1.671,5.3-4.171,5.279-8.4-0.138-29-.079-57.995-0.045-86.993,0-2.564-.234-4.673-2.479-6.617-2.656-2.3-2.121-6.054.545-8.281a5.751,5.751,0,0,1,8.035.725c2.127,2.4,2.227,6.1-.572,7.928-2.937,1.919-3.038,4.308-3.035,7.19q0.054,43.5.019,86.994a13.724,13.724,0,0,1-.012,2c-0.372,2.512.619,4.063,3.053,4.843a12.083,12.083,0,0,1,5.985,4.3c3.7,4.843,4.207,10.084,1.337,15.381-1.2,2.213-.862,3.468.812,5.084,4.793,4.627,9.33,9.523,14.206,14.057a10.774,10.774,0,0,1,3.692,8.715q-0.26,91.243-.226,182.487c0,4.98-.447,9.982.375,14.946h-4ZM646.782,416.87c0-21-.058-42,0.059-63a10.458,10.458,0,0,0-3.416-8.343c-7.095-6.8-13.958-13.841-20.863-20.836-1.808-1.832-3.546-3.038-6.452-2.888-7.361.382-12.962-5.127-13.849-12.908a12.477,12.477,0,0,1,4.3-10.748,7.144,7.144,0,0,0,2.492-6.082c-0.089-7.5.009-15-.027-22.5-0.019-3.828-.079-3.836-3.839-3.74a11.958,11.958,0,0,1-5.852-.86c-7.335-3.687-6.839-13.518-1.885-16.662,3.847-2.441,4.813-5.508,4.534-9.647-0.223-3.319-.018-6.665-0.079-10-0.044-2.393-3.953-7.769-6.141-8.495-1.193-.4-2.209.422-3.293,0.7-5.516,1.4-11.5-3.171-11.355-8.736,0.1-3.85,3.572-7.617,7.863-8.536a8.957,8.957,0,0,1,9.356,5.037c0.8,1.94,1.705,4,.392,6.219-1.2,2.03-.493,3.729,1.3,5.115,0.652,0.5,1.118,1.246,1.76,1.768a7.464,7.464,0,0,1,2.81,6.572c-0.172,4.827-.009,9.665-0.069,14.5-0.023,1.858.427,3.087,2.465,3.625a9.554,9.554,0,0,1,5.736,4.545c1.711,2.852,2.323,5.965.614,8.974-1.485,2.613-1.67,5.325-1.651,8.186,0.049,7.333-.027,14.666.031,22,0.03,3.759.111,3.759,3.956,3.911,7.608,0.3,11.792,3.685,14.2,10.905,1.51,4.522-.22,8.093-2.54,11.628a15.745,15.745,0,0,1-2.031,2.19c-2.169,2.215-2.224,2.446-.022,4.756,2.067,2.168,4.257,4.219,6.387,6.328,4.854,4.805,9.628,9.692,14.586,14.386,2.5,2.365,3.338,5.013,3.331,8.423-0.093,41.665-.006,83.33-0.154,124.994a12.716,12.716,0,0,0,4.132,10.009q35.5,35.172,70.678,70.673a8.28,8.28,0,0,0,6.527,2.848c7.656-.175,15.321-0.149,22.98-0.017,2.793,0.049,4.42-.632,5.7-3.47,3.235-7.177,12.607-6.9,16.622-3.5a8.048,8.048,0,0,1,2.9,3.966c0.687,2.791,2.529,3.034,4.885,2.992,5.327-.1,10.658-0.033,15.987-0.033,6.5,0,12.99-.044,19.484.028a4.783,4.783,0,0,0,4.822-2.58c3.891-6.508,12.177-5.607,15.159-.129,1.243,2.282,2.908,2.742,5.271,2.727q19.485-.127,38.97,0a5.745,5.745,0,0,0,5.651-2.956,6.868,6.868,0,0,1,10-1.984c2.212,1.728,3.726,3.991,3.064,6.906a6.989,6.989,0,0,1-5.5,5.783c-2.93.676-5.722,0.021-7.083-2.279-1.725-2.915-3.954-3.019-6.707-3.007q-18.985.081-37.971-.026c-2.536-.018-4.246.364-5.291,3.131-1.29,3.416-4.214,4.9-7.923,4.943a8.089,8.089,0,0,1-7.947-4.984,4.575,4.575,0,0,0-4.873-3.1c-11.823.123-23.648,0.1-35.472,0.034-2.211-.012-3.55.393-4.473,2.81-1.622,4.251-4.987,6.345-9.712,6.4-4.9.056-8.423-1.992-10.258-6.4-0.967-2.324-2.352-2.834-4.575-2.814-8.326.074-16.655-.042-24.98,0.074a7.734,7.734,0,0,1-6.147-2.483q-29.024-29.259-58.219-58.348c-5.061-5.062-9.986-10.277-15.29-15.072-2.547-2.3-3.142-4.788-3.111-7.934,0.094-9.5.021-19,.018-28.5q0-17.25,0-34.5h0.015ZM761.413,562.238a7.7,7.7,0,0,0,7.264,7.87,7.725,7.725,0,1,0,.354-15.431A7.776,7.776,0,0,0,761.413,562.238ZM611.143,255.877a7.427,7.427,0,0,0-7.245-7.267c-3.857.014-7.518,3.913-7.338,7.814,0.187,4.044,3.283,6.738,7.644,6.652C608.64,262.989,611.229,260.3,611.143,255.877Zm-37.826,46.932c2.584-.84,5.107-1.983,8.026-1.844a10.429,10.429,0,0,1,8.83,15.479,12.9,12.9,0,0,1-1.137,1.637c-3.916,5.014-3.943,5.049.7,9.7,7.294,7.31,14.573,14.637,21.974,21.838a8.84,8.84,0,0,1,2.878,7.023c-0.139,10.165-.056,20.333-0.017,30.5,0.007,1.641-.3,3.323.524,5.379a21.591,21.591,0,0,1,6.119-.437c6.375,0.174,12.565,4.875,14.192,10.734,1.824,6.569-.458,13.863-6.147,17.1-3.165,1.8-3.889,3.921-3.76,7.161,0.146,3.645.647,7.558-.431,10.892-1.094,3.385-4.865,5.323-7.3,8.048a15.82,15.82,0,0,1-2.127,2.11c-2.219,1.686-2.767,3.946-2.743,6.606,0.074,8.332.024,16.666,0.024,25,0,22.666.066,45.333-.063,68a11.15,11.15,0,0,0,3.6,8.789q16.614,16.248,32.851,32.88a11.6,11.6,0,0,0,9.119,3.829q101.675-.171,203.35-0.082h29.978c2.483,0,4.813.151,6.84-2.1,1.567-1.737,4.335-1.148,5.732.535a4.233,4.233,0,0,1,.049,5.5c-1.445,1.725-4.041,2.354-5.744.707-2.264-2.189-4.817-1.933-7.447-1.933q-102.425-.012-204.85-0.013c-10.159,0-20.318-.108-30.476-0.015a8.426,8.426,0,0,1-6.588-2.748q-17.713-17.975-35.647-35.729a11.174,11.174,0,0,1-3.687-8.743q0.243-47,.094-94c-0.008-3.617.852-6.441,3.782-8.7,1.695-1.31,2.841-3.369,4.6-4.555,6.478-4.377,4.345-10.912,4.367-16.843,0.008-1.943-2-1.856-3.507-1.889-5.02-.109-8.828-2.432-11.823-6.358-3.751-4.919-3.9-14.657,1.715-19.669,2.255-2.013,2.813-4.184,2.782-7.017q-0.177-15.748,0-31.5A8.965,8.965,0,0,0,609,351.035c-7.279-7.09-14.409-14.332-21.6-21.516a10.263,10.263,0,0,0-1.072-1.046c-2.1-1.555-2.454-4.391-4.1-6.022-1.548-1.531-4.479-.389-6.621-1.579-3.471-1.929-5.911-4.654-5.51-8.714,0.42-4.267.036-8.47-.034-12.7-0.054-3.333-.032-6.666-0.032-10,0-27-.036-54,0.044-81,0.01-3.312-.214-5.892-3.611-7.863-3.185-1.848-3.738-6.078-2.18-9.346a7.982,7.982,0,0,1,8.8-4.167,8.141,8.141,0,0,1,6.244,6.959c0.161,2.792-.9,5.551-3.365,6.81-3.118,1.592-3.445,3.88-3.437,6.91,0.073,30,.032,60,0.055,90C572.579,299.379,572.156,301.094,573.317,302.809Zm57.714,104.35c0.918-5.451-5.99-10.773-10.842-10.586a10.922,10.922,0,0,0-10.664,11.319,10.594,10.594,0,0,0,11.148,10.185A10.435,10.435,0,0,0,631.031,407.159Zm-42.544-95.1c0.447-3.9-3.188-8.051-7.373-8.424-3.913-.35-8.194,3.378-8.485,7.389-0.281,3.854,3.141,7.657,7.2,8A7.815,7.815,0,0,0,588.487,312.057Zm181.328,295.78H886.267c0.833,0,1.668-.044,2.5.007a5.192,5.192,0,0,0,5.3-2.744c3.228-5.085,9.672-4.68,12.5.51a6.763,6.763,0,0,1-1.7,8.533c-2.187,1.946-6.52,2.2-8.766.426a8.063,8.063,0,0,1-2.018-2.178c-0.9-1.552-2.218-1.795-3.811-1.776-3.664.043-7.328-.006-10.993-0.006q-113.7,0-227.4.081a12.229,12.229,0,0,1-9.614-3.958q-20.652-21.057-41.7-41.727a11.137,11.137,0,0,1-3.529-8.784c0.091-62.685,0-125.371.186-188.056,0.016-5.58-1.382-9.59-5.462-13.522-13.675-13.18-26.9-26.828-40.45-40.14a11.126,11.126,0,0,1-3.661-8.746c0.132-28.508.073-57.017,0.07-85.525,0-1.5-.006-3-0.043-4.5a3.5,3.5,0,0,0-2.246-3.5,8.44,8.44,0,0,1-4.079-3.533,8.328,8.328,0,0,1,3.008-11.683c3.827-2.349,9.722-1.093,11.985,2.553,2.478,3.993,1.585,9.743-2.5,11.816-2.956,1.5-3.4,3.371-3.394,6.248q0.119,43.761-.008,87.523a9.531,9.531,0,0,0,3.118,7.434c14.44,14.305,28.694,28.8,43.174,43.063a10.088,10.088,0,0,1,3.281,7.9c-0.09,16.49-.05,32.98-0.05,49.471q0,70.761-.059,141.523a13.417,13.417,0,0,0,4.352,10.54q19.323,18.849,38.162,38.192a13.98,13.98,0,0,0,10.937,4.622c38.816-.149,77.633-0.086,116.45-0.086v0.014ZM555.25,204.045a6.378,6.378,0,0,0-6.481-6.214A6.513,6.513,0,1,0,555.25,204.045ZM464.021,324.806c2.342-.6,4.16-1.685,6.422-1.84,6.822-.468,13.571,4.785,10.7,14.305-0.881,2.92-.517,4.337,1.421,6.264,15.594,15.5,31.053,31.138,46.708,46.576a10.522,10.522,0,0,1,3.36,8.308q-0.125,106.242-.043,212.485c0,1.333.058,2.669-.006,4-0.091,1.879.49,2.812,2.526,3.5,5.174,1.743,8.725,5.149,9.782,10.883,1.145,6.208-3.035,13.725-9.19,15.182-8.786,2.079-15.521-1.716-17.8-9.325-1.738-5.8.721-13.181,6.715-15.368,5.149-1.879,5.471-4.9,5.464-9.37q-0.147-104.744.011-209.487A12.722,12.722,0,0,0,526,390.856c-14.882-14.559-29.525-29.362-44.252-44.079a18.8,18.8,0,0,1-1.4-1.43c-1.729-2.151-3.553-2.648-6.44-1.8-6.017,1.768-11.2-1.424-13.288-7.324a7.28,7.28,0,0,1,.391-6.242c1.176-2.133.49-3.541-1.144-5.158-10.42-10.309-20.737-20.723-31.09-31.1a39.208,39.208,0,0,1-2.821-2.829c-2.423-2.983-5.093-4.873-9.348-4.4-3.5.386-5.908-1.782-7.1-5.1a7.086,7.086,0,0,1,2.652-8.4c2.628-1.594,2.97-3.57,2.966-6.2q-0.067-45.246.01-90.493a6.786,6.786,0,0,0-2.565-5.922c-2.329-1.951-2.036-5.622-.005-7.586,2.255-2.181,4.889-2.34,7.157-.431,2.216,1.864,3.072,5.86.865,7.5-3.382,2.513-2.875,5.709-2.877,8.963q-0.029,42.747-.014,85.494c0,1.167.08,2.339-.012,3.5-0.151,1.906.74,2.985,2.335,3.954,4.509,2.742,5.755,4.947,4.3,9.9-0.755,2.578.215,3.693,1.625,5.1q13.068,13.082,26.143,26.156C456.089,316.927,460.1,320.907,464.021,324.806Zm57.57,306.646a9.557,9.557,0,0,0,9.721,9.7,9.749,9.749,0,0,0,9.737-9.32c0.127-5.3-4.3-10.169-9.617-10.016C525.315,621.99,521.121,626.521,521.591,631.452ZM463.572,333.475a7.148,7.148,0,0,0,7.366,7.6,7.852,7.852,0,0,0,8.124-7.589c0-4.129-3.93-8.054-8.092-7.786C467.147,325.946,463.038,329.222,463.572,333.475ZM152.744,296.493V421.516c0,1.167.048,2.336-.009,3.5-0.088,1.8.279,3.268,2.169,4.044a6.718,6.718,0,0,1,2,1.45,7.973,7.973,0,0,1,.239,11.185c-2.447,2.607-8.362,2.872-10.991.274-2.752-2.72-4.062-7.118-.419-11.125a1.232,1.232,0,0,1,.341-0.36c4.56-1.8,4.169-5.624,4.166-9.532q-0.069-127.023,0-254.046c0-3.018-.237-5.807-1.866-8.56-2.418-4.089-1.185-8.1,1.608-11.543,2.6-3.212,7.807-4.282,11.782-2.779,0.309,0.117.637,0.186,0.946,0.305,1.379,0.537,2.413,2.214,3.886,1.96,1.649-.285,2.583-2,3.755-3.167,6.146-6.107,12.208-12.3,18.424-18.335,1.883-1.828,2.481-3.392,1.534-6.073-1.968-5.568.537-11.356,5.723-13.078,5.932-1.97,10.642-.63,13.528,5,1.358,2.651,2.935,3.285,5.712,3.465,4.214,0.272,7.177-1.129,10.057-4.169,7.1-7.5,14.473-14.739,21.861-21.955,2.042-1.995,3.146-3.974,3-6.958-0.176-3.61,1.991-5.807,5.169-6.039,3.866-.283,6.437,1.989,6.54,5.777,0.107,3.952-2.791,7.237-6.456,6.315-2.74-.689-4.02.351-5.579,1.915-8,8.024-16.119,15.933-23.969,24.1-2.394,2.491-4.8,3.934-8.249,3.445-0.654-.092-1.339.048-2-0.031-2.912-.349-4.759.409-6.188,3.452-2.359,5.022-7.023,7.046-12.618,5.27-3.233-1.026-4.91-.06-6.91,1.975-6.538,6.656-13.173,13.217-19.763,19.821-1.284,1.286-2.192,2.324-1.671,4.685a10.651,10.651,0,0,1-11.84,12.813c-0.657-.1-1.319-0.168-1.978-0.255-1.3-.172-1.832.551-1.88,1.705-0.063,1.5-.058,3-0.058,4.5Q152.743,233.481,152.744,296.493Zm190.3,88.933a8.4,8.4,0,0,1,5.222-8.9c3.225-1.456,3.775-3.5,3.761-6.633q-0.151-34.248,0-68.5a9.476,9.476,0,0,0-3.117-7.479q-8.464-8.138-16.6-16.611a4.831,4.831,0,0,0-5.669-1.419c-6.234,1.959-11.62-1.1-13.615-7.264a9.527,9.527,0,0,1,2.842-10.393c2.853-2.695,6.384-4.1,10.524-2.634,6.622,2.344,9.62,8.177,6.811,14.579-1.12,2.551-.577,3.8,1.154,5.486,5.6,5.46,10.987,11.151,16.652,16.546a10.925,10.925,0,0,1,3.723,8.726c-0.164,23-.053,46-0.1,69,0,2.958.145,5.123,3.586,6.659,4.769,2.129,6.906,8.376,4.577,12.71-1.082,2.015-.195,3.249,1.26,4.7q19.488,19.371,38.842,38.878c12.357,12.373,24.692,24.768,37.135,37.054a9.6,9.6,0,0,1,3.043,7.517c-0.111,11.988-.253,23.984.056,35.966,0.282,10.987-.142,21.968.084,32.958,0.142,6.953.143,13.964-.052,20.952-0.242,8.643.141,17.3,0.154,25.953,0.008,5.494-.2,10.988-0.245,16.482-0.028,3.314-.1,6.5,2.677,9.225,1.724,1.693,1.306,4.375.1,6.538-1.232,2.208-3.377,2.432-5.649,2.3-2.518-.15-3.963-1.764-4.8-3.817a4.487,4.487,0,0,1,1.768-5.748c3.13-1.742,3.073-4.324,3.072-7.211-0.025-42.331-.2-84.664.172-126.993,0.061-6.935-1.863-11.7-6.741-16.493-23.888-23.461-47.459-47.245-71.107-70.951-1.649-1.652-2.916-2.477-5.57-1.5-3.821,1.406-7.833,1.189-11.108-2.059A9.069,9.069,0,0,1,343.049,385.426ZM323.6,258.467c-4.868-.066-7.944,2.812-7.918,7.41,0.025,4.387,2.973,7.3,7.516,7.416,4.652,0.124,7.932-2.981,7.933-7.508C331.135,261.428,328.152,258.529,323.6,258.467Zm40.513,60.35v-51c0-1.167-.055-2.336.008-3.5,0.11-2.027-.345-3.389-2.662-4.037a9.709,9.709,0,0,1-5.839-5.164c-3.162-6.061.138-11.352,3.982-13.87a26.825,26.825,0,0,1,2.709-1.233c2.09-1.054,2.471-2.653.713-4.19-1.558-1.361-2.98-2.565-2.981-4.868,0-2.664,1.076-4.564,3.406-5.548,2.164-.915,4.492-0.185,6.16,1.929a5.714,5.714,0,0,1,.107,6.5,8.592,8.592,0,0,1-.629.773c-3.339,3.831-3.339,3.831.831,6.076,4.859,2.618,6.574,6.071,5.9,11.494a9.075,9.075,0,0,1-6.115,7.828c-2.59.949-3.214,2.412-3.076,4.842,0.132,2.326.027,4.665,0.027,7,0,32.832.054,65.663-.075,98.494a11.119,11.119,0,0,0,3.594,8.733Q409,417.652,447.6,456.446c0.588,0.589,1.213,1.147,1.761,1.771,1.316,1.5,2.69,2.28,4.8,1.353a6.975,6.975,0,0,1,5.81.079c3.21,1.477,5.449,3.66,5.659,7.5,0.211,3.856-.866,7.21-4.587,8.557-3.285,1.188-3.466,3.271-3.462,6.121q0.086,66.248.024,132.493c0,2.364.128,4.46,2,6.373,1.947,1.987,1.671,4.681.4,6.984-1.2,2.169-3.427,2.392-5.7,2.157-2.735-.283-4-2.089-4.722-4.488a4.552,4.552,0,0,1,2.331-5.522c2.887-1.533,3.212-3.694,3.208-6.552q-0.1-65.746-.008-131.493c0-2.8-.253-4.923-3.078-6.627a7.817,7.817,0,0,1-3.462-9.96c0.838-2.288.249-3.7-1.341-5.28q-20.571-20.388-41.046-40.875c-8.828-8.832-17.578-17.743-26.384-26.6-4.225-4.249-8.408-8.548-12.793-12.628a8.671,8.671,0,0,1-2.946-7C364.167,354.815,364.117,336.816,364.116,318.817Zm-6.459-68.772a7.736,7.736,0,0,0,7.155,7.985,7.742,7.742,0,1,0,.574-15.461A7.784,7.784,0,0,0,357.657,250.045ZM305.088,489.371a30.789,30.789,0,0,0-.027-4c-0.584-4.447.406-8.213,4.305-10.852,1.977-1.338,1.636-3.426,1.866-5.4,0.511-4.389,5.053-6.446,8.461-3.932a5.712,5.712,0,0,1,1.9,6.265,4.3,4.3,0,0,1-4.451,3.283c-2.428-.044-4.381.169-6.26,2.13-2.209,2.306-3.485,4.552-3.276,7.874,0.283,4.482.161,9,.031,13.5-0.079,2.718.46,4.53,3.316,5.841,6.513,2.988,8.552,8.815,8.718,15.561a10.7,10.7,0,0,1-1.28,4.774c-1.15,2.454-.389,4.077,1.371,5.723,2.067,1.933,4.03,3.978,6.019,5.994a6.511,6.511,0,0,0,3.823,2.073c5.169,0.8,8.081,4.917,8.177,9.729a10.342,10.342,0,0,1-7.807,10.262c-3.648,1.071-8.675-.927-10.786-4.388a7.2,7.2,0,0,1-1.116-2.735c-0.9-7.447-7.369-10.655-11.66-15.514-1.013-1.146-2.442-.882-3.751-0.9-6.7-.094-11.443-3.469-14.132-9.316-2.665-5.8-2.355-11.727,1.763-16.888a9.294,9.294,0,0,0,2.27-5.836,153.418,153.418,0,0,0-.11-16.981c-0.118-1.493-.051-3-0.225-4.489a8.7,8.7,0,0,1,3.149-7.959c3.686-3.366,7.028-7.109,10.65-10.55,2.021-1.919,3.527-3.834,3.175-6.868-0.35-3.018,2.64-5.493,5.965-5.089,2.959,0.36,4.648,2.46,4.58,5.512-0.065,2.964-1.967,5.58-4.772,5.266-3.375-.379-5.215,1.336-7.2,3.361-3.148,3.209-6.286,6.431-9.537,9.534a7.629,7.629,0,0,0-2.623,6.139c0.165,6.663.017,13.333,0.1,20,0.03,2.417.458,2.751,2.622,2.144a19.88,19.88,0,0,1,3.416-.553c3.054-.317,3.215-0.462,3.3-3.712,0.083-3,.018-6,0.018-9h0.015ZM318.4,542.915c1.248-1.139,2.424-2.26,3.652-3.321,1.285-1.11,1.252-2.176.058-3.315-0.715-.682-1.367-1.429-2.084-2.109-5.564-5.28-3.226-5.067-9.643-.594a3.3,3.3,0,0,0-.51,1.122C312.625,537.358,315.074,540.458,318.4,542.915ZM422.749,354.493c0.11,6.548-2.908,10.843-8.547,13.037-2.8,1.091-3.678,2.575-3.648,5.5,0.086,8.4-.042,8.4,5.828,14.3,2.47,2.479,5.04,4.866,7.395,7.448,1.637,1.8,3.034,2.351,5.575,1.384,6.851-2.605,13.044,1.154,14.673,8.224,0.456,1.981-.144,3.67-0.6,5.35-1.289,4.758-1.1,5.092,3.534,4.491a8.99,8.99,0,0,1,4.9.366,8.043,8.043,0,0,1,4.615,9.467c-0.967,3.7-4.746,6.044-8.925,5.529a7.457,7.457,0,0,1-6.421-7.618,18.777,18.777,0,0,1,.339-2.95c0.485-2.98-1.023-4.452-3.819-3.311a10.764,10.764,0,0,1-9.131-.209,10.123,10.123,0,0,1-5.415-12.827c0.97-2.6.535-4.208-1.448-6.038-3.793-3.5-7.278-7.331-11.02-10.889-1.819-1.73-2.886-3.563-2.56-6.137,0.145-1.149-.1-2.346.046-3.5,0.562-4.485-.424-7.334-5.371-9.284-6.918-2.728-9.6-10.735-6.426-17.629,1.376-2.983.618-4.426-1.369-6.321-3.856-3.68-7.422-7.669-11.349-11.266a10.237,10.237,0,0,1-3.537-8.3q0.16-56.763.072-113.525c0-3.667-.021-7.335-0.008-11,0.008-2.017-.144-3.6-2.186-5.085-2.61-1.9-2.52-5.3-.588-7.529,2.165-2.494,5.041-2.811,7.5-.827,2.146,1.734,2.962,5.856.8,7.509-3.149,2.405-2.8,5.416-2.8,8.538-0.01,40.01.044,80.02-.087,120.029a11.2,11.2,0,0,0,3.873,9.182c3.589,3.225,7.031,6.642,10.282,10.208,2.014,2.209,3.717,2.294,6.48,1.234,8.316-3.192,15.478.29,18.434,6.92A15.532,15.532,0,0,1,422.749,354.493Zm10.729,44.06c-4.82-.07-7.874,2.842-7.857,7.49a7.326,7.326,0,0,0,7.472,7.571,7.663,7.663,0,0,0,7.989-7.7C441.067,401.6,437.983,398.618,433.478,398.553Zm76.115,53.3c0,16.667-.058,33.335.053,50a9.321,9.321,0,0,1-3.017,7.442c-10.493,10.233-20.724,20.734-31.172,31.013a8.908,8.908,0,0,0-2.907,6.99c0.1,22.168.064,44.336,0.055,66.5,0,2.343.088,4.341,2.231,6.2,2.805,2.431,2.431,5.88-.181,8.3a5.687,5.687,0,0,1-8.033-.384c-2.349-2.489-2.411-6.264.617-8.273,2.786-1.848,2.843-4.1,2.84-6.808-0.028-21.835.076-43.67-.084-65.5a11.621,11.621,0,0,1,3.7-9.21c9.43-9.174,18.685-18.529,28.007-27.814,0.236-.235.47-0.474,0.724-0.689,3.5-2.96,4.8-6.483,4.764-11.29-0.253-31.667-.164-63.337-0.076-95a10.124,10.124,0,0,0-3.133-7.929q-43.384-43.188-86.508-86.639c-3.19-3.225-6.395-4.417-10.611-3.832-1.483.206-2.969,0.418-4.461,0.524-3.8.271-4.47-.305-4.659-3.959-0.061-1.164-.017-2.333-0.017-3.5q0-39.751,0-79.5c0-1.334-.039-2.667-0.012-4a3.965,3.965,0,0,0-2.653-4.221c-4.108-1.874-6.17-5.168-6.154-9.933,0.016-4.908,3.361-8.767,8.094-10.125,4.434-1.273,9.622,1.239,11.982,5.17a10.355,10.355,0,0,1-5.028,14.953c-2.788.977-3.42,2.491-3.414,5.143q0.086,41.252.023,82.5c0,0.667.03,1.333,0.051,2a1.9,1.9,0,0,0,2.185,2.077c2.5-.019,5.012.194,7.49-0.022,2.934-.257,4.953.892,6.983,2.937q26.406,26.607,52.976,53.053c11.661,11.665,23.195,23.463,35.052,34.925a13.429,13.429,0,0,1,4.4,10.911C509.438,419.852,509.594,435.856,509.593,451.857ZM407.1,200.447a7.424,7.424,0,0,0-7.49-7.583,8.2,8.2,0,0,0-7.949,7.914c0.033,4.157,3.692,7.358,8.291,7.254C404.493,207.928,407.175,205.082,407.1,200.447ZM813.977,486.1h93.41c1.166,0,2.334-.053,3.5.01,2.126,0.114,3.758-.264,4.885-2.5A6.375,6.375,0,0,1,922.4,480.1c3.337,0.261,5.6,2.236,6.54,5.849,0.626,2.4-.812,5.609-3.242,7.246-2.939,1.978-5.478,1.864-8.225-.376a2.345,2.345,0,0,1-.72-0.684c-1.7-3.8-4.965-3.542-8.37-3.539q-94.658.079-189.315,0.127c-4.654.01-8.137-.971-11.315-4.6-4.6-5.253-9.736-10.039-14.771-14.892a5.942,5.942,0,0,1-2.025-4.81c0.105-4.33,0-8.664.059-13A4.084,4.084,0,0,0,688.5,447.2c-5.408-2.973-6.744-7.724-4.067-12.54,0.743-1.336,1.629-2.714,3.094-3.133,3.326-.953,3.626-3.293,3.5-6.191-0.163-3.658.116-7.337-.07-10.992a7.692,7.692,0,0,1,2.647-6.591c3.669-3.386,6.994-7.145,10.672-10.521a10.281,10.281,0,0,0,3.534-8.318c-0.13-21.493-.1-42.988-0.021-64.482,0.01-3.019-.375-5.33-3.39-7.041-2.605-1.478-3.351-5.643-2.283-8.509,0.907-2.432,3.678-3.967,6.894-3.971a6.27,6.27,0,0,1,6.054,3.636c1.221,2.43.839,7.05-1.362,8.257-3.619,1.984-3.228,5-3.227,8.117,0.006,21.661-.035,43.322.063,64.982,0.014,3.2-.692,5.673-3.17,7.915-3.946,3.569-7.5,7.571-11.325,11.278a7.448,7.448,0,0,0-2.577,6.154c0.2,3.821.059,7.662,0.01,11.493a4.4,4.4,0,0,0,2.395,4.416c6.85,4.11,6.864,11.842.025,15.924a4.219,4.219,0,0,0-2.414,4.323c0.1,3.5.212,7.009-.018,10.493a8.429,8.429,0,0,0,3,7.013c4.91,4.742,9.838,9.471,14.571,14.385a8.884,8.884,0,0,0,7.033,2.86c24.809-.09,49.618-0.054,74.427-0.055h21.479ZM660,382.837c0-28.663-.037-57.326.047-85.988,0.01-3.461-.253-6.2-3.6-8.441-3.087-2.066-3.166-5.835-1.177-8.922a7.112,7.112,0,0,1,8.245-2.942,7.322,7.322,0,0,1,4.98,7.742,5.948,5.948,0,0,1-3.095,4.872c-2.931,1.376-2.9,3.631-2.888,6.2,0.047,12.332.021,24.663,0.021,37q0,67.742-.072,135.482a11.125,11.125,0,0,0,3.573,8.752q26.118,25.8,51.91,51.935a11.751,11.751,0,0,0,9.186,3.767q85.926-.165,171.853-0.064c0.666,0,1.334-.039,2,0.006,2.122,0.144,3.846-.193,4.886-2.473a6.519,6.519,0,0,1,4.6-3.548c3.433-.807,6.543.86,8.115,4.238a7.177,7.177,0,0,1-2.084,8.48c-2.849,2.269-6.944,2.623-8.966-.318-2.627-3.822-5.993-3.538-9.625-3.538q-82.929,0-165.859,0a64.757,64.757,0,0,0-6.971.185,7.9,7.9,0,0,1-7.036-2.853c-3.777-3.992-7.737-7.81-11.623-11.7-14.365-14.376-28.675-28.81-43.152-43.072a10.5,10.5,0,0,1-3.343-8.312C660.05,440.5,660,411.666,660,382.837Zm65.97-7.025c0-15.5-.026-30.993.025-46.489,0.008-2.6-.328-4.542-2.845-6.283-3.39-2.347-3.354-7.907-.4-10.582,3.537-3.2,7.432-2.725,10.465.745,2.448,2.8,1.942,8.2-1.4,10.133-2.806,1.625-3.309,3.585-3.3,6.476q0.116,46.237,0,92.477c-0.008,3.112.488,5.105,3.769,6.555,4.048,1.789,5.6,5.953,4.177,10.571-0.893,2.906-.073,4.614,1.853,6.492,5.84,5.7,11.607,11.467,17.356,17.255,1.557,1.567,2.871,2.11,5.2,1.028,5.149-2.393,9.178-.88,11.952,4.407,1.033,1.969,2.148,2.615,4.2,2.525,2.825-.125,5.659-0.029,8.49-0.029q65.686,0,131.373.015c3.157,0,6.043.094,8.5-2.767,1.863-2.171,4.583-1.593,6.578.521a4.735,4.735,0,0,1,.181,6.715c-2.173,2.385-4.911,2.982-6.954.646-2.226-2.546-4.733-2.6-7.582-2.6q-68.932.029-137.867,0.012a22.56,22.56,0,0,1-2.5-.013,4.164,4.164,0,0,0-4.749,2.669,7.192,7.192,0,0,1-6.212,4.338c-6.448.678-10.684-3.083-10.207-9.6a6.806,6.806,0,0,0-2.3-6.038q-8.966-8.7-17.645-17.684c-1.7-1.755-3.2-2.251-5.6-1.42-5.187,1.8-9.6-.311-11.831-5.252a8.771,8.771,0,0,1,3.84-11.591c3.239-1.634,3.487-3.764,3.47-6.746C725.92,406.8,725.966,391.308,725.966,375.812Zm-423.1-102.57a1.4,1.4,0,0,1-.039.5c-2.071,4.124.738,6.364,3.258,8.859,8.877,8.79,17.611,17.727,26.552,26.451a9.37,9.37,0,0,1,3.113,7.409c-0.122,25.667-.035,51.334-0.117,77a9.053,9.053,0,0,0,2.819,7.056q36.666,36.48,73.192,73.1a17.6,17.6,0,0,1,1.408,1.418c1.277,1.607,2.632,2.188,4.739,1.275a7.172,7.172,0,0,1,4.35-.671c3.816,0.781,6.648,3.183,7.364,6.564,0.872,4.114-.428,8.271-4.125,9.8-3.338,1.382-3.818,3.375-3.8,6.482q0.161,26,.011,52c-0.012,2.694.5,4.544,3.08,6.095,3.127,1.877,4.059,6.056,2.849,9.291a7.971,7.971,0,0,1-8.021,4.77,7.882,7.882,0,0,1-6.793-6.361,6.708,6.708,0,0,1,3.264-7.7c2.934-1.634,3.136-3.8,3.125-6.6q-0.1-25.749,0-51.5c0.01-2.932-.1-5.278-3.342-6.926a6.975,6.975,0,0,1-3.425-8.616c1.2-3.363-.392-4.937-2.285-6.826q-19.984-19.949-39.958-39.906c-11.306-11.309-22.543-22.689-33.926-33.92a9.476,9.476,0,0,1-3.095-7.433c0.122-25.333-.025-50.668.171-76a12.006,12.006,0,0,0-4.019-9.579c-8.625-8.333-17.046-16.877-25.462-25.423-2.206-2.24-4.163-3.683-7.775-2.925-4.367.916-8.64-3.2-8.778-7.507-0.126-3.891,3.948-8.143,7.927-8.274C299.263,265.008,302.888,268.8,302.864,273.242ZM818.222,519.648c-28.475,0-56.951-.046-85.426.059a11.025,11.025,0,0,1-8.779-3.445q-24.531-24.918-49.476-49.425c-2.751-2.711-3.622-5.553-3.615-9.293q0.142-71.739.063-143.479a27.984,27.984,0,0,1,.018-3,5.577,5.577,0,0,0-2.727-5.791c-3.372-2.348-3.882-5.535-2.23-8.742a7.5,7.5,0,0,1,6.892-4.163,6.927,6.927,0,0,1,6.316,4.912c0.736,2.891.647,6.182-2.053,7.661-3.585,1.965-3.466,4.821-3.465,8.01q0.023,71.738-.059,143.476a11.734,11.734,0,0,0,3.822,9.189q24.209,23.842,48.069,48.037a10.664,10.664,0,0,0,8.3,3.463q84.675-.135,169.351-0.07c0.833,0,1.666-.023,2.5-0.006,1.605,0.033,2.941-.264,3.522-2.078a6.675,6.675,0,0,1,1.328-2.094,7.173,7.173,0,1,1,11.015,9.186c-2.641,3.118-7.408,3.731-10.105.553-2.29-2.7-4.736-3.01-7.832-3Q860.936,519.71,818.222,519.648ZM404.1,546.882c0-16.83-.115-33.66.089-50.487a11.021,11.021,0,0,0-3.7-8.693c-25.276-25.128-50.4-50.408-75.688-75.523a11.658,11.658,0,0,1-3.785-9.148c0.154-24.16-.02-48.322.175-72.481a11.961,11.961,0,0,0-4.024-9.564c-7.452-7.144-14.689-14.514-21.946-21.859-1.743-1.763-3.218-2.7-6.024-1.832-3.59,1.109-7.97-2.343-8.927-6.255-0.757-3.092,1.473-7.37,4.511-8.651a8.191,8.191,0,0,1,10.351,3.534,7.166,7.166,0,0,1,.358,5.827c-0.974,2.449.1,3.662,1.583,5.129,6.505,6.449,12.645,13.309,19.531,19.316,5.5,4.8,7.4,10.032,7.242,17.324-0.481,22.984-.113,45.985-0.246,68.979a10.64,10.64,0,0,0,3.483,8.287c25.39,25.248,50.648,50.629,76.047,75.867a11.769,11.769,0,0,1,3.856,9.164c-0.138,33.491-.08,66.983-0.081,100.475a33.975,33.975,0,0,1-.019,3.5c-0.277,2.669.74,4.282,3.256,5.448,3.6,1.667,5.387,4.775,5.468,8.78a10.424,10.424,0,0,1-7.746,10.31c-3.926,1.15-8.766-.927-11.139-4.78-2.566-4.168-2.064-8.678,1.427-12.315a5.76,5.76,0,0,1,2.314-1.839c3.7-.877,3.679-3.541,3.667-6.523C404.07,581.54,404.105,564.211,404.1,546.882ZM739.865,354.093c0-23-.036-46,0.042-69.007,0.011-3.169-.412-5.56-3.472-7.508-3.339-2.126-3.482-7.309-.92-10.132a7.207,7.207,0,0,1,10.269-.5c2.816,2.649,2.959,8.522-.4,10.615-2.941,1.831-2.894,4.079-2.893,6.766q0.021,69.008-.058,138.015a10.488,10.488,0,0,0,3.482,8.283c8.024,7.759,15.869,15.7,23.7,23.661a8.377,8.377,0,0,0,6.523,2.867c19.82-.122,39.642-0.076,59.463-0.049,2.4,0,4.363-.032,5.622-2.848a8.457,8.457,0,0,1,15.241-.449c1.69,2.906,3.4,3.34,6.226,3.324q23.735-.133,47.471-0.012c2.47,0.01,4.131-.441,5.665-2.829,2.62-4.079,7.142-4.048,10.733-.932,2.519,2.187,2.457,8.161-.168,10.337-3.513,2.913-8.225,2.7-10.75-1.318-1.421-2.258-3.034-2.665-5.332-2.661q-24.235.037-48.47-.07c-2.382-.013-3.94.533-5.118,2.888-3.119,6.234-12.668,5.715-15.191.282-1.315-2.831-3.344-3.171-6.022-3.162-19.321.062-38.643,0.032-57.964,0.031-1,0-2-.049-3,0.013a6.362,6.362,0,0,1-5.3-2.1q-13.492-13.718-27.225-27.2c-1.913-1.87-2.176-3.907-2.173-6.3q0.046-35,.018-70.007h0.008Zm-110.654-212.7c1.072,2.094,2.568,3.2,3.847,4.485,13.281,13.328,26.532,26.687,39.927,39.9a10.674,10.674,0,0,1,3.507,8.339q-0.2,24.484,0,48.973A10.024,10.024,0,0,1,673.223,251c-8.225,8.017-16.249,16.241-24.41,24.326-1.94,1.922-3.2,3.5-2.486,6.781,1.054,4.863-2.295,7.921-7.219,7.634-3.821-.222-6.1-2.592-6.158-6.392-0.058-4.1,2.232-6.886,5.992-7.247a3.9,3.9,0,0,1,1.975.047c2.374,1.218,3.673-.3,5.108-1.747,4.687-4.732,9.412-9.427,14.121-14.137,3.532-3.533,7.009-7.122,10.615-10.577A7.271,7.271,0,0,0,673.215,244q-0.111-25.486,0-50.973a7.466,7.466,0,0,0-2.453-5.71q-21.247-21.129-42.38-42.374a7.237,7.237,0,0,0-5.164-2.513,11.257,11.257,0,0,1-8.895-4.841,10.233,10.233,0,0,1-1.12-11.24c1.921-3.894,4.955-6.138,9.364-6.352,5.432-.265,5.44-0.264,5.443-5.864,0.006-10.328-.07-20.657.051-30.983,0.032-2.743-.7-4.255-3.275-5.8-6.836-4.1-5.518-12.254.2-15.38a8.84,8.84,0,0,1,11.5,2.684c2.661,4.079,1.912,10.182-2.239,12.3-3.358,1.715-3.781,3.969-3.751,7.151,0.11,11.493.055,22.987,0.057,34.482a8.3,8.3,0,0,0,1.306,5.159c4.311,6.2,3.768,10.963-1.54,16.42C629.971,140.517,629.657,140.9,629.211,141.394ZM265.167,411.785c0-5.665-.125-11.335.057-17a7.608,7.608,0,0,0-2.583-6.113q-22.694-22.535-45.226-45.232c-1.734-1.744-3.2-2.794-5.981-2.028a6.972,6.972,0,0,1-8.13-3.444,7.613,7.613,0,0,1-.116-8.056,7.964,7.964,0,0,1,9-3.7,7.717,7.717,0,0,1,5.515,7.456,2.368,2.368,0,0,0,0,.5c0.4,1.7-1.48,3.33-.57,4.793a28.836,28.836,0,0,0,4.3,4.823c14.346,14.388,28.668,28.8,43.121,43.081a9.949,9.949,0,0,1,3.257,7.869c-0.167,11.5-.152,23-0.019,34.494a8.844,8.844,0,0,1-2.849,7.026c-7.4,7.2-14.647,14.562-21.949,21.866-1.06,1.06-2.1,2.139-3.141,3.218-1.185,1.229-1.528,2.556-.383,4a6.964,6.964,0,0,1,1.385,3.68c0.55,4.884-1.616,8.082-6.016,8.736-4.965.739-8.038-1.17-9.458-6.573-0.507-1.927.544-3.579,1.388-5.167,2.393-4.5,2.5-5.541-.834-8.679a8.364,8.364,0,0,1-2.816-7.025c0.192-4.992.051-10,.047-15,0-1,.016-2-0.036-3-0.063-1.2-.223-2.516-1.809-2.422-1.2.071-1.505,1.164-1.524,2.221a69.147,69.147,0,0,0-.017,6.994,7.706,7.706,0,0,1-2.87,6.994c-2.261,1.957-4.23,4.248-6.41,6.3a5.185,5.185,0,0,0-1.788,4.42c0.254,3.385-.676,6.852,1.805,10,1.2,1.526-.013,4.072-1.52,4.68a4.194,4.194,0,0,1-5.141-1.85,2.32,2.32,0,0,1,.264-3.173c2.191-2.123,2.261-4.822,1.909-7.447-0.622-4.644,1.435-7.833,4.641-10.869,8.046-7.617,6.244-4.1,6.544-15.384a5.733,5.733,0,0,0-2.538-5.408c-5.562-4.168-4.882-14.177,2.463-17.293a10.5,10.5,0,0,1,11.794,2.626,10.3,10.3,0,0,1,.693,12.42,9.6,9.6,0,0,1-2,2.211,4.834,4.834,0,0,0-1.935,4.325c0.067,6.331.086,12.665-.011,19a6.088,6.088,0,0,0,2.068,4.832,17.058,17.058,0,0,1,3.792,4.589c1.279,2.554,2.833,2.833,4.918.922,2.209-2.023,4.263-4.215,6.384-6.335,6.6-6.6,13.139-13.244,19.821-19.751a7.617,7.617,0,0,0,2.543-6.151c-0.155-5.662-.049-11.33-0.049-17h0.011ZM162.739,239.451c0,7.5.093,15-.051,22.5a7.531,7.531,0,0,0,2.532,6.159c3.163,2.955,6.089,6.162,9.219,9.155a7.278,7.278,0,0,1,2.317,5.768c-0.088,9.666-.044,19.334-0.023,29,0.009,4.025.045,4,4,5.146,11.343,3.276,12.532,16.016,7.031,21.887a7.728,7.728,0,0,0-2.123,5.814q0.061,51.753-.007,103.507c0,2.456.3,4.235,2.85,5.622,3.77,2.051,4.593,8.02,2.025,11.337a7.8,7.8,0,0,1-11.427.92c-3.668-3.321-3.776-7.908-.267-11.4a1.312,1.312,0,0,1,.364-0.338c4.029-1.514,3.756-4.891,3.752-8.294q-0.051-48-.033-96.007c0-1.96.718-4.227-.611-5.821-1.494-1.792-3.761-.388-5.676-0.471-7.284-.319-11.469-4.258-13.082-10.292a12.645,12.645,0,0,1,6.912-15.061c3.226-1.488,3.881-3.369,3.827-6.508-0.155-9.164-.117-18.334-0.02-27.5a7.1,7.1,0,0,0-2.3-5.736c-3.158-2.962-6.085-6.169-9.24-9.134a7.671,7.671,0,0,1-2.607-6.131q0.137-24-.056-48c-0.025-2.913.667-5.222,2.972-6.967,2.5-1.9,3.5-3.906,1.907-7.14-1.959-3.987-.086-7.555,2.714-10.379a10,10,0,0,1,11.464-2.359c3.97,1.605,6.538,4.413,6.711,9,0.312,8.311-6.615,13.576-14.544,10.658-2.42-.89-3.587-0.143-5.2,1.269a9.1,9.1,0,0,0-3.411,7.8C162.917,224.777,162.739,232.117,162.739,239.451ZM176.9,340.063c5.213,0.057,10.163-4.565,10.227-9.55,0.062-4.815-5.11-9.888-10.052-9.861-4.921.027-9.66,4.55-9.881,9.431C166.968,335.1,171.741,340.006,176.9,340.063Zm-1.474-134.022a7.672,7.672,0,0,0,7.747-7.356c0-4.053-4.036-8.254-8.03-7.8-4.951.562-7.715,3.181-7.5,8.086C167.831,203.38,170.791,206.11,175.426,206.041Zm-39.041,79.264q0-53.762,0-107.522c0-1.334-.02-2.667-0.027-4a3.171,3.171,0,0,0-2.315-3.348c-3.456-1.352-5.1-4.03-4.795-7.858,0.292-3.613,2.1-5.835,5.972-7.05,2.556-.8,5.958.462,7.875,2.931a7.593,7.593,0,0,1,.479,8.846,3.4,3.4,0,0,1-.923,1.165c-3.55,2.044-3.156,5.336-3.143,8.752,0.1,25.171.057,50.343,0.057,75.515q0,70.515,0,141.03c0,0.666.051,1.338-.008,2-0.21,2.326.347,4.055,2.616,5.368a6.991,6.991,0,0,1,3.558,6.693A7.828,7.828,0,1,1,132.2,402.4a1.191,1.191,0,0,1,.344-0.357c4.6-1.691,3.843-5.609,3.843-9.218Q136.383,339.067,136.385,285.305Zm-46.027-40.85c-0.555,2.4-1.091,4.909-3.54,6.245a3.839,3.839,0,0,0-2.083,4.121,12.428,12.428,0,0,1-.012,2.5c-0.5,4.178.4,6.849,5.127,8.474,5.489,1.885,7.84,6.959,7.859,12.72,0.017,5.433-4.187,10.863-9.528,12.863-3.377,1.265-3.43,1.265-3.433,4.7-0.02,21.489.009,42.979-.05,64.469a6.614,6.614,0,0,0,2.678,5.878A7.787,7.787,0,0,1,86.146,379.4a7.89,7.89,0,0,1-10.416-2.788c-2.154-3.395-1.776-8.6,1.819-10.054,5.187-2.093,4.486-5.839,4.484-9.768q-0.019-28.737-.013-57.473c0-1.166-.056-2.335,0-3.5,0.123-2.443-.72-3.784-3.258-4.773-6.007-2.34-9.141-6.937-8.853-13.579,0.256-5.9,3.047-10.211,8.538-12.3,2.886-1.1,3.9-2.731,3.6-5.607a23.877,23.877,0,0,1-.017-3.5c0.094-2.35-.632-3.736-3.026-4.982-5.809-3.026-6.248-9.8-.541-13.656a6.721,6.721,0,0,1,7.945-.121C89.037,238.989,90.1,241.454,90.358,244.455Zm801.8,163.621q12.744,0,25.488,0c2,0,3.756-.118,5.469-1.728a4.289,4.289,0,0,1,6.551.611,5.33,5.33,0,0,1-.5,6.416c-1.736,1.741-5.132,2.016-6.643-.119-1.79-2.533-4.008-2.541-6.525-2.539-16.326.016-32.653-.083-48.977,0.078a10.544,10.544,0,0,1-8.32-3.375Q822.958,371.408,787,335.616a9.457,9.457,0,0,1-3.115-7.427c0.164-15.669.007-31.342,0.112-47.012,0.018-2.79-.448-4.611-3.445-5.578a12.039,12.039,0,0,1-7.1-6.66,13.383,13.383,0,0,1,5.725-17.577,14.96,14.96,0,0,1,3.2-1.343,2.01,2.01,0,0,0,1.536-2.22c0.032-1.833-.056-3.672.055-5.5,0.149-2.47-.273-4.257-2.873-5.593-2.839-1.46-3.788-5.018-2.881-7.8a6.972,6.972,0,0,1,7.242-4.921,7.086,7.086,0,0,1,6.853,5.485,6.892,6.892,0,0,1-2.685,7.071c-1.154.95-2.67,1.559-2.755,3.3-0.138,2.817-.473,5.661.219,8.443,0.325,1.309,1.548,1.44,2.7,1.816,7.489,2.442,10.871,8.013,9.741,15.729-0.79,5.395-4.262,8.443-9.011,10.355-3.667,1.477-3.756,1.444-3.765,5.17-0.038,15.5.019,31.009-.072,46.512a8.607,8.607,0,0,0,2.844,6.587q35.575,35.478,71.022,71.087a7.786,7.786,0,0,0,6.124,2.588C875.16,407.987,883.658,408.073,892.154,408.076ZM776.485,263.337c-0.511,6,5.176,9.565,9.833,9.6,5.014,0.034,9.493-4.642,9.617-9.592,0.117-4.7-3.654-9.475-9.832-9.779C781.826,253.352,775.742,257.582,776.485,263.337ZM542.645,107.254c0,8,.084,16.006-0.047,24.006a8.408,8.408,0,0,0,2.7,6.627q24.655,24.476,49.126,49.138c1.945,1.963,3.437,2.3,6.023,1.124,6.284-2.865,12.329,1.068,12.252,8.04a7.742,7.742,0,0,0,2.659,6.029c2.431,2.483,5.916,4.408,6.907,7.7,0.921,3.066.253,6.609,0.284,9.942,0.013,1.334-.083,2.679.06,4,0.285,2.616,1.524,3.566,4.036,2.882a12.425,12.425,0,0,1,3.878-.7,8.723,8.723,0,0,1,8.352,9.338c-0.2,5.089-3.556,8.006-8.693,8.281-4.936.265-8.785-4.127-9.031-8.727a4.075,4.075,0,0,1,.366-1.93c1.03-2.1,1.417-4.007-.7-5.783-1.142-.958-0.755-2.486-0.773-3.79-0.047-3.334-.1-6.671,0-10a5.792,5.792,0,0,0-1.985-4.873,34.64,34.64,0,0,1-3.538-3.526c-1.829-2.165-3.443-2.643-6.361-1.265-6.983,3.3-14.019-2.037-12.7-9.488,0.378-2.132-.482-3.1-1.636-4.255q-8.286-8.329-16.6-16.63c-11.312-11.312-22.576-22.674-33.986-33.885a9.966,9.966,0,0,1-3.271-7.867q0.229-24.755.01-49.511A9.784,9.784,0,0,1,543.2,74.2c4.623-4.321,8.938-8.971,13.494-13.367a7,7,0,0,0,2.459-6.044c-0.268-4.278,2.562-6.84,6.743-6.848,4.5-.009,6.982,2.747,6.648,7.372-0.267,3.689-4.094,7.147-7.61,5.95-3.289-1.119-4.9.189-6.845,2.195-4.17,4.309-8.383,8.583-12.724,12.717a8.158,8.158,0,0,0-2.777,6.569C542.742,90.915,542.645,99.086,542.645,107.254ZM234.178,212.892c0-13.494.079-26.989-.062-40.482a8.85,8.85,0,0,1,2.96-6.944q41.418-41.238,82.731-82.582c2.29-2.28,3.473-4.591,3.28-7.89-0.252-4.316-.153-8.663,0-12.989,0.1-2.762-.61-4.456-3.365-5.845-4.215-2.125-5.03-8.145-2.1-11.653a8.239,8.239,0,0,1,11.208-.941c3.6,3.173,4.138,8.547.231,11.278-3.446,2.408-3.476,5.193-3.411,8.555,0.089,4.663-.077,9.332.062,13.993a7.707,7.707,0,0,1-2.5,6.181q-23.055,22.859-45.958,45.871c-12.592,12.6-25.12,25.271-37.78,37.806a8.954,8.954,0,0,0-2.819,7.023c0.094,26.322,0,52.645.119,78.967,0.017,3.74-.633,6.725-3.757,9.149-2.213,1.716-3.788,4.246-5.972,6.01a8.471,8.471,0,0,0-3.452,8.463c0.561,4.915-3.028,7.667-8.083,7.834-3.809.126-7.585-4.41-7.345-7.915a8.138,8.138,0,0,1,8.679-7.685,9.563,9.563,0,0,1,2.375.662,3.08,3.08,0,0,0,3.579-.946c3.267-3.326,6.53-6.66,9.9-9.878,1.543-1.472,1.476-3.222,1.475-5.059q-0.014-20.492-.005-40.983h0.008ZM834.189,435.617q-34.73,0-69.459,0c-5.957,0-5.778.487-5.778-5.639q0-64.758,0-129.516c0-1.334-.089-2.674.018-4,0.179-2.23-.617-3.519-2.7-4.7-4.461-2.534-5.338-6.636-2.723-10.467a6.842,6.842,0,0,1,10.053-1.629,6.973,6.973,0,0,1,1.434,10.134,6.038,6.038,0,0,1-1.43,1.385c-1.788,1.107-2.191,2.719-2.149,4.7,0.089,4.165.011,8.333,0.012,12.5q0.009,59.257.027,118.515c0,6.786-.525,6.175,6.189,6.177q67.959,0.018,135.919.008c1,0,2-.078,3,0.007a3.976,3.976,0,0,0,4.055-2.142,6.724,6.724,0,0,1,7.731-3.064,6.537,6.537,0,0,1,5.343,6.335,6.923,6.923,0,0,1-3.817,6.972c-2.725,1.211-6.879.351-8.7-1.846a5.283,5.283,0,0,1-1.023-1.7c-0.57-1.82-1.948-2.064-3.544-2.029-1.166.026-2.332,0-3.5,0h-68.96ZM205.721,189.683c0,12.167-.1,24.336.066,36.5a10.087,10.087,0,0,1-3.338,8.324c-5.959,5.571-11.543,11.543-17.366,17.263-1.795,1.764-2.77,3.407-2.045,6.135a7.421,7.421,0,0,1-4.228,8.583,7.321,7.321,0,0,1-9.016-1.762,7.916,7.916,0,0,1-.986-9.644,7,7,0,0,1,7.8-3.222c3.047,0.629,4.971-.475,6.976-2.563,5.423-5.647,10.937-11.213,16.6-16.611a9.286,9.286,0,0,0,3.065-7.45q-0.174-36.251-.037-72.5c0.023-7.843-1.041-5.375,4.366-10.824q17.78-17.913,35.694-35.689a8.269,8.269,0,0,0,2.882-6.969c-0.261-4.362,1.983-6.583,6.359-6.187,2.847,0.258,4.782-.469,6.461-2.6a22.283,22.283,0,0,1,2.473-2.469c3.07-2.843,5.732-5.53,4.725-10.566-0.728-3.639,2.874-7,6.535-7.425s7.463,2.248,8.672,6.118c0.992,3.178-.877,7.123-4.167,8.727a8.7,8.7,0,0,1-6.783.226,2.662,2.662,0,0,0-3.107.733c-2.711,2.707-5.407,5.43-8.152,8.1a5.332,5.332,0,0,0-1.407,4.074c-0.161,5.514-1.773,7.121-7.256,6.759-2.074-.138-3.077.966-4.218,2.091-4.389,4.327-8.717,8.714-13.074,13.074-8.124,8.129-16.2,16.307-24.414,24.346a9.377,9.377,0,0,0-3.152,7.432C205.826,164.348,205.722,177.016,205.721,189.683ZM355.344,99.628c-3.439-2.383-5.527-4.9-5.376-8.884,0.137-3.628,1.832-6.357,4.97-7.344,3.1-.976,5.106-2.972,7.219-5.05,2.016-1.984,4.084-3.935,5.915-6.083,1.78-2.088,1.419-3.759-1.072-5.135-2.962-1.636-5.037-3.657-4.938-7.366,0.094-3.582,2.185-6.858,5.178-7.667a8.29,8.29,0,0,1,9.188,3.387,7.715,7.715,0,0,1-1.07,9.626,10.161,10.161,0,0,1-2.011,1.446,2.811,2.811,0,0,0-1.642,2.847c0.534,3.135-1.46,4.918-3.364,6.8-1.066,1.052-2.133,2.105-3.143,3.21-0.883.967-2.236,1.712-2.382,3.091-0.167,1.568,1.566,1.986,2.363,2.994,3.833,4.851,2.476,11.185-3.347,13.462a18.245,18.245,0,0,0-6.411,4.444c-9.411,9.422-18.879,18.788-28.2,28.3-2.03,2.073-4.109,3.172-7,2.838-1.313-.151-2.66.029-3.99-0.016a4.03,4.03,0,0,0-3.684,2.006c-3.97,5.478-6.76,6.52-13.172,4.715-1.861-.524-3.07-0.421-4.414.946-5.133,5.224-10.329,10.385-15.532,15.539-1.436,1.422-1.733,2.742-1.125,4.869,1.208,4.222-.855,8.044-4.664,9.909-3.948,1.932-7.835,1.049-10.692-2.43a8.5,8.5,0,0,1-.621-9.757c2.132-3.223,6.205-5.3,9.393-3.882,3.27,1.454,5.094.459,7.253-1.86,4.195-4.5,8.609-8.811,13.043-13.085,1.937-1.866,2.654-3.343,1.672-6.366-1.837-5.655-.11-10.462,5.826-13.1,5.133-2.278,10.8.138,13.282,5.345a22.693,22.693,0,0,1,.965,2.806,2.014,2.014,0,0,0,1.725,1.582c3.956,0.263,7.66.624,10.957-2.9,7.5-8.019,15.448-15.617,23.2-23.4C351.4,103.713,353.117,101.916,355.344,99.628Zm9.753-8.473c0.073-3.325-3.324-6.669-6.7-6.6-3.03.066-6.42,3.383-6.547,6.409-0.14,3.319,3.14,6.417,6.818,6.441A6.736,6.736,0,0,0,365.1,91.155Zm-88.935,73.416a6.351,6.351,0,1,0-12.683.7c0.166,3.481,2.969,5.881,6.684,5.724A6.007,6.007,0,0,0,276.162,164.571ZM124.453,436.623c-4.034.012-5.931-1.332-7.468-5.29-1.154-2.976-.509-6.466,2.533-8.255,3.3-1.939,3.74-4.43,3.737-7.821q-0.112-112.467-.063-224.934c0-1.333-.087-2.673.018-4A3.063,3.063,0,0,0,121,182.869a8.132,8.132,0,0,1-4.507-3.732,7.255,7.255,0,0,1,.817-8.779c2.382-2.726,5.455-3.018,8.69-2.22,3.075,0.758,4.762,3.184,4.991,6.675,0.186,2.847-.561,5.383-3.016,6.957a4.522,4.522,0,0,0-2.252,4.536c0.127,2.66.037,5.33,0.037,8q0,110.468,0,220.935c0,0.833.064,1.673-.016,2.5a4.089,4.089,0,0,0,2.413,4.417,7.324,7.324,0,0,1,3.848,7.52A7.193,7.193,0,0,1,124.453,436.623ZM110.185,401.7c-3.742.188-6.135-1.653-7.586-5.275a6.989,6.989,0,0,1,3.216-8.621c3.125-1.624,3.472-3.836,3.456-6.849-0.092-16.992-.043-33.985-0.047-50.977,0-1.166,0-2.334-.072-3.5a1.845,1.845,0,0,0-1.4-1.809,13.121,13.121,0,0,1-2.764-1.075c-3.7-2.158-5.916-5.212-5.766-9.717,0.148-4.466,2.253-8,6.308-9.26,3.442-1.071,3.745-2.892,3.739-5.813q-0.1-47.229.029-94.458c0.01-3.028-.813-4.67-3.584-6.156a7.573,7.573,0,0,1-2.093-11.25,7.982,7.982,0,0,1,11.52-1.1c3.538,3.28,3.732,9.048-.246,11.773-2.7,1.845-3.122,3.852-3.117,6.659q0.074,47.229-.015,94.458c-0.007,2.909.53,4.72,3.449,6.287,7.567,4.062,7.751,13.805.311,18.182-2.916,1.717-3.8,3.465-3.776,6.65,0.134,17.158.1,34.318,0.03,51.477-0.011,2.8.242,4.962,3.143,6.6,2.873,1.619,3.7,5.748,2.652,8.943A7.425,7.425,0,0,1,110.185,401.7Zm-0.012-95.112a8.039,8.039,0,0,0-8.2,7.585c-0.077,3.72,4.234,7.883,8.12,7.838s8.066-4.267,7.975-8.051C117.976,310.1,114.3,306.669,110.173,306.586ZM297.979,71.962a41.045,41.045,0,0,1-3.062-4.385,7.621,7.621,0,0,1,3.1-9.918,8.146,8.146,0,0,1,10.559,2.526c2.222,3.518,1.512,8.994-2.114,10.505-6.478,2.7-10.456,8.116-15.118,12.731-20.941,20.727-41.7,41.636-62.527,62.483-2.823,2.827-5.578,5.725-8.463,8.488a7.239,7.239,0,0,0-2.4,5.749c0.1,5,.027,10,0.027,14.993,0,20.824-.059,41.648.059,62.472a9.91,9.91,0,0,1-3.287,7.873c-7.193,6.931-14.136,14.12-21.228,21.156-1.715,1.7-2.849,3.381-2.794,6.043,0.071,3.482-1.993,5.194-5.286,5.154a4.958,4.958,0,0,1-5.237-5.358c0.022-2.913,2.392-5.749,5.352-5.28,3.244,0.514,4.911-1.09,6.806-3,6.449-6.5,12.855-13.053,19.47-19.383a10.42,10.42,0,0,0,3.471-8.291c-0.128-24.988.022-49.978-.155-74.965a13.408,13.408,0,0,1,4.293-10.523q37.592-37.294,74.916-74.86C295.641,74.89,297.168,73.806,297.979,71.962ZM836.206,625.677c-11.486,0-22.973.1-34.456-.06a9.877,9.877,0,0,0-7.874,3.184c-11.426,11.648-23.137,23.016-34.481,34.741a12.843,12.843,0,0,1-10.484,4.232c-9.981-.252-19.974,0-29.959-0.127-3.168-.039-5.435.416-7.394,3.524-3.756,5.959-12.279,3.852-14.584-.737a9.1,9.1,0,0,1,2.878-11.894,8.557,8.557,0,0,1,11.607,1.885,1.325,1.325,0,0,1,.314.384c1.366,4.629,5.015,4.356,8.766,4.311,9.487-.113,18.979-0.174,28.462.036a10.294,10.294,0,0,0,8.251-3.538c11.4-11.648,23.088-23.019,34.472-34.685A12.169,12.169,0,0,1,801.36,623c22.8,0.153,45.608.035,68.412,0.117,3.319,0.012,5.72-.313,7.7-3.764,2.386-4.158,7.211-5.591,12.139-2.451a9.09,9.09,0,0,1,2.734,11.928c-3.042,5.4-11.994,5.878-15,.369-1.716-3.144-3.683-3.59-6.685-3.565C859.177,625.734,847.691,625.676,836.206,625.677Zm6.481-204.071q-32.234,0-64.466,0c-5.224,0-5.262-.02-5.264-5.156q-0.019-51.261-.009-102.52c0-1.167-.073-2.34.014-3.5a3.9,3.9,0,0,0-2.537-4.321c-2.5-1.147-3.506-3.35-3.483-6.117,0.035-4.217,2.532-6.859,6.726-6.944,4.118-.083,7.731,3,7.654,6.849a6.474,6.474,0,0,1-3.271,5.841c-2.4,1.238-2.6,3.065-2.592,5.357q0.057,51.759.029,103.52,0,1.25.061,2.5a1.8,1.8,0,0,0,1.871,1.9c1.164,0.059,2.331.071,3.5,0.072q63.216,0,126.434.022c2.537,0,4.785,0,6.6-2.415a3.812,3.812,0,0,1,4.948-.994A4.508,4.508,0,0,1,921.673,420c0.049,1.767-.48,3.427-2.137,4.217-1.7.811-3.985,1.126-5.162-.323-2.2-2.7-4.956-2.269-7.72-2.271q-31.983-.025-63.967-0.009v-0.011ZM650.7,512.647c-0.832,0-1.671.065-2.5-.012-2.676-.251-4.589.425-6.131,3.019a7.79,7.79,0,0,1-8.556,3.835,8.877,8.877,0,0,1-7.07-6.316,8.013,8.013,0,0,1,2.956-9.313c2.143-1.659,2.69-3.478,2.646-5.98-0.116-6.661-.088-13.327-0.023-19.99,0.024-2.423-.544-3.648-3.283-4.533a10.477,10.477,0,0,1-4.244-17.34c3.447-3.591,7.714-3.645,12.022-2.447,3.566,0.991,7.118,5.9,6.875,9.6-0.26,3.958-1.914,7.642-5.69,9.332-2.9,1.3-3.262,3.186-3.214,5.866,0.118,6.662.081,13.327,0.032,19.99-0.016,2.091.476,3.437,2.87,3.825a7.306,7.306,0,0,1,5.935,5.457c0.621,2.128,1.814,2.5,3.638,2.471,3-.04,5.994.049,8.989-0.023a5.608,5.608,0,0,1,4.453,1.725q17.261,17.351,34.644,34.578a5.078,5.078,0,0,1,1.466,4.027c-0.016,4.831.114,9.666-.047,14.492-0.088,2.634.544,4.2,3.255,5.29,4.484,1.809,7.218,6.6,6.724,10.6-0.556,4.511-4.788,8.884-9.446,9.762-4.194.79-9.893-2.133-11.419-6.331-1.7-4.665-1.468-10.47,3.931-13.037,4.242-2.016,4.726-4.777,4.5-8.643-0.2-3.487-.127-7-0.012-10.492A6.078,6.078,0,0,0,692,547.218c-10.745-10.683-21.492-21.368-32.09-32.2-2.145-2.191-4.483-2.557-7.209-2.38C652.036,512.684,651.368,512.647,650.7,512.647Zm44.9,74.583c4.646-.067,7.413-2.811,7.438-7.376a7.351,7.351,0,0,0-7.827-7.709,8.029,8.029,0,0,0-7.671,7.609C687.468,584.056,690.963,587.3,695.6,587.23ZM632.5,471.087a7.734,7.734,0,0,0,7.5-8.157,7.838,7.838,0,0,0-7.894-7.3c-3.314.045-7.842,3.447-7.618,7.677A8.029,8.029,0,0,0,632.5,471.087Zm-376.489-4.46c2.639,2.215,4.98,4.268,4.712,7.977a8.266,8.266,0,0,1-6.636,7.651c-2.862.611-6.6-1.459-8.195-4.533a7.543,7.543,0,0,1,1.76-9.089,1.911,1.911,0,0,1,.38-0.321c7.192-3.621,11.712-10.248,17.383-15.566,5.466-5.126,10.554-10.655,15.961-15.847a8.786,8.786,0,0,0,2.837-7.047q-0.2-18.5-.01-37.01a9,9,0,0,0-2.822-7.055q-31.347-31.207-62.539-62.572c-1.669-1.672-3.093-2.946-6.02-1.958-3.568,1.2-6.989-1.142-8.725-4.92a7.48,7.48,0,0,1,1.852-8.593c2.334-2.11,7.046-2.484,9.821-.739a6.671,6.671,0,0,1,2.971,7.84c-0.922,3.3.429,5.152,2.54,7.254,20.787,20.689,41.47,41.484,62.294,62.136a9.953,9.953,0,0,1,3.189,7.876q-0.232,19.5-.011,39.01a8.791,8.791,0,0,1-2.885,6.988c-8.21,8.048-16.287,16.234-24.393,24.388A14.5,14.5,0,0,0,256.007,466.627ZM407.593,96.553c0,5.331-.157,10.668.056,15.99a9.675,9.675,0,0,1-3.224,7.9c-11.4,11.2-22.644,22.572-33.942,33.881a12.165,12.165,0,0,1-1.068,1.051c-1.927,1.5-2.562,3.023-1.208,5.493a9.458,9.458,0,0,1,.148,8.634c-2.117,4.741-7.254,7.132-12.953,5.957-4.059-.836-7.818-5.41-8.035-9.778a10.679,10.679,0,0,1,9.689-10.769c1.485-.092,3.183-0.331,4.441.245,2.933,1.345,4.567-.131,6.418-2.006,8.773-8.882,17.622-17.688,26.444-26.521,2.47-2.473,4.843-5.054,7.442-7.383a8.963,8.963,0,0,0,3.134-7.443c-0.173-10.326.095-20.66-.15-30.983-0.1-3.986.8-7.164,3.993-9.6a11.055,11.055,0,0,0,1.071-1.047c2.914-2.928,2.8-2.882,1.326-6.681-3.313-8.561,0-17.762,9.5-20.842a15.537,15.537,0,0,1,20.037,11.18,15.24,15.24,0,0,1-14.612,18.7,14.64,14.64,0,0,1-8.565-2.047c-2.087-1.335-3.527-.795-5.213.865-4.647,4.575-4.721,4.5-4.723,11.2Q407.593,89.556,407.593,96.553Zm28.579-38.731a10.6,10.6,0,0,0-10.533-11.334c-5.579-.2-11.027,5.361-11.062,9.988-0.046,6.232,4.33,11.283,10.468,11.49C431.268,68.175,435.962,63.9,436.172,57.822ZM366.113,165.1a7.82,7.82,0,0,0-7.615-7.594c-3.461-.177-8.047,3.47-7.957,7.879,0.069,3.432,3.572,7.525,7.739,7.605C362.108,173.063,366.633,169.457,366.113,165.1ZM342.025,538.877c0-7.492-.043-14.984.027-22.475,0.024-2.538-.363-4.243-3.3-5.223a9.722,9.722,0,0,1-.22-18.164c3.149-1.178,3.6-3.187,3.549-6.134-0.154-9.32-.139-18.645-0.012-27.966,0.042-3.063-.465-5.1-3.645-6.694-4.353-2.187-5.2-6.618-2.926-10.594,1.7-2.982,4.34-3.883,7.593-3.628,3.2,0.25,5.663,1.8,6.376,4.653,0.736,2.938,1.282,6.425-1.646,8.238-3.213,1.991-3.2,4.6-3.185,7.654,0.067,9.822.105,19.645-.029,29.465-0.036,2.647.632,4.224,3.2,5.4,6.1,2.786,7.357,13.235.076,17.138-2.719,1.458-3.294,3.075-3.278,5.785q0.134,22.723.019,45.448c-0.012,2.772.276,4.857,3.019,6.657,3.288,2.158,3.695,5.943,1.988,9.312-1.635,3.227-4.328,4.353-7.818,4.045a7.144,7.144,0,0,1-6.471-4.638,8.672,8.672,0,0,1,2.333-9.128,3.483,3.483,0,0,1,1.252-.787c2.976-.7,3.144-2.886,3.119-5.39C341.975,554.193,342.024,546.534,342.025,538.877Zm0.562-29.768c4.248,0.024,7.443-2.878,7.547-6.855a7.686,7.686,0,0,0-7.573-7.588,7.566,7.566,0,0,0-7.261,7.38C335.352,506.274,338.252,509.085,342.587,509.109ZM572.765,107.893c0,5.662.217,11.335-.067,16.983-0.256,5.087,3.52,7.189,6.553,9.866,0.906,0.8,2.219.122,3.358-.124a8.887,8.887,0,0,1,10.725,6.417c1.044,3.857-1.444,8.328-5.562,10a8.827,8.827,0,0,1-10.971-4.377,7.96,7.96,0,0,1-.274-6.752,3.538,3.538,0,0,0-1.093-4.405c-6.44-6.075-5.288-4.4-5.352-13.984-0.068-10.324.161-20.654-.106-30.972a11.092,11.092,0,0,1,3.874-9.151c4.868-4.537,9.456-9.374,14.2-14.048a11.06,11.06,0,0,0,3.222-5.863c1.493-6.682,6.4-8.716,11.948-7.1a8.46,8.46,0,0,1,4.6,12.3,14.939,14.939,0,0,0-2.2,10.392c0.829,6.221-1.1,11.019-6.152,14.65-0.533.383-.871,1.047-1.417,1.4-4.537,2.93-4.351,7.418-4.108,11.995,0.1,1.9,1.352,2.94,2.462,4.161,1.683,1.849,1.49,4.061.648,6.07-0.783,1.87-2.65,2.364-4.611,2.312-3.869-.1-6.624-4.644-4.026-7.37,2.572-2.7,2.864-5.516,2.552-8.634a9.5,9.5,0,0,1,3.9-9.121c1.172-.911,1.966-2.345,3.19-3.145,6.017-3.93,4.966-9.94,4.786-15.7a1.975,1.975,0,0,0-2.24-2.117,8.643,8.643,0,0,1-7.087-2.983,1.827,1.827,0,0,0-2.993-.056q-8.115,8.125-16.2,16.282c-1.392,1.407-1.584,3.212-1.574,5.1C572.786,95.9,572.767,101.9,572.765,107.893Zm11.728,41.151c3.895,0.04,6.4-2.186,6.519-5.79a6.17,6.17,0,0,0-6.319-6.693,6.285,6.285,0,0,0-6.264,6.259C578.416,146.7,580.659,149.006,584.493,149.044ZM900.176,386.609c-6.162,0-12.326-.081-18.485.042a7.184,7.184,0,0,1-5.718-2.3q-30.834-31.011-61.828-61.864a7.841,7.841,0,0,1-2.437-6.2c0.1-7.665.008-15.332,0.035-23,0.01-2.9-.162-5.367-3.328-7.059-2.643-1.413-3.283-5.674-2.088-8.543a7.326,7.326,0,0,1,7.317-4.161c3.094,0.38,6.485,3.519,6.609,6.587a6.856,6.856,0,0,1-3.239,6.357c-2.215,1.314-2.632,3.027-2.6,5.366,0.108,7.831.133,15.667,0,23.5a7.821,7.821,0,0,0,2.551,6.165q20.777,20.546,41.426,41.217c6.245,6.232,12.515,12.441,18.631,18.8a7.7,7.7,0,0,0,6.124,2.592c11.657-.1,23.316-0.079,34.974-0.006,2.637,0.017,4.641-.254,6.016-3.094,1.979-4.086,9.277-4.389,12.084.414a6.783,6.783,0,0,1-1.619,8.932,7.438,7.438,0,0,1-9.581-.1,3.444,3.444,0,0,1-.974-1.122c-0.909-2.289-2.751-2.544-4.884-2.524-6.328.06-12.657,0.022-18.986,0.022v-0.024ZM797.938,312.755c0-3.333-.055-6.666.018-10,0.05-2.248-.327-3.884-2.431-5.481-4.725-3.588-3.594-10.122,1.827-12.415a6.939,6.939,0,0,1,9.054,4.406c0.93,3.626-.018,6.735-3.366,8.491-2.218,1.164-2.614,2.617-2.59,4.764,0.069,6.165.135,12.334-.028,18.5a8.792,8.792,0,0,0,2.838,7.039c12.786,12.646,25.457,25.41,38.165,38.135,8.826,8.837,17.7,17.625,26.442,26.549a9.837,9.837,0,0,0,7.822,3.411c10.319-.212,20.646-0.1,30.969-0.027,2.467,0.018,4.223-.394,5.732-2.832,2.122-3.427,5.712-3.947,9.173-2.126a7.116,7.116,0,0,1,3.479,8.473,7.53,7.53,0,0,1-8.311,4.912,5.235,5.235,0,0,1-4.056-2.621c-1.56-3.09-4.065-3.327-7.056-3.3-10.49.1-20.981-.051-31.47,0.056a8.335,8.335,0,0,1-6.575-2.663q-33.283-33.492-66.763-66.79c-2.041-2.03-3.12-4.068-2.921-6.984C798.1,319.1,797.938,315.921,797.938,312.755ZM494.062,584.382c0-7.664-.071-15.329.038-22.991,0.039-2.718-.182-4.953-3.449-5.54a6.012,6.012,0,0,1-2.186-1.141c-4.263-2.979-6.721-7.148-6.245-12.285,0.508-5.486,3.521-9.933,8.884-11.626,8.309-2.623,15.427.228,18,7.846,2.738,8.12-.445,14.448-8.431,17.732-3.948,1.624-4.054,1.461-4.059,5.261-0.02,15.328.041,30.656-.067,45.983-0.019,2.793.7,4.424,3.4,5.772a9.379,9.379,0,0,1,5.44,9.394c-0.4,4.375-2.8,7.539-7.188,9.318-5.441,2.207-12.981-2.88-13.161-8.488-0.162-5.019,1.364-8.907,6.239-10.745,2.3-.868,2.872-2.263,2.849-4.5-0.081-8-.031-15.994-0.031-23.991h-0.025Zm-7.482-40.949a9.533,9.533,0,0,0,9.8,9.666,10,10,0,0,0,9.672-9.477c0.1-6.379-5.392-9.819-9.732-9.9C492.233,533.638,486.145,537.02,486.58,543.433Zm8.479-58.934c0-1.6-.079-2.612.017-3.6a3.735,3.735,0,0,0-2.551-4.276c-3.546-1.5-4.739-4.447-4.395-8.1a7.25,7.25,0,0,1,4.581-6.086,3.521,3.521,0,0,0,2.369-3.825c-0.044-4.831-.073-9.663.018-14.493a6.106,6.106,0,0,0-1.985-4.861q-6.453-6.261-12.7-12.731a4.5,4.5,0,0,0-5.288-1.306c-3.273,1.032-6.783-.872-8.358-3.854-1.434-2.715-.945-7.324,1-9.395,2.039-2.174,7.12-2.852,9.8-1.308,2.788,1.608,4.843,5.454,3.69,8.511-1.142,3.028.095,4.616,2.011,6.466,4.072,3.932,7.946,8.069,12.04,11.977a7.009,7.009,0,0,1,2.335,5.713c-0.131,4.828.045,9.663-.076,14.492a5.756,5.756,0,0,0,2.6,5.377c5.179,3.907,4.959,9.46-.429,13.18a4.3,4.3,0,0,0-2.138,4.083c0.043,2.331-.092,4.669.028,7a6.176,6.176,0,0,1-2.182,5.277c-2.58,2.353-4.893,5-7.444,7.386-1.729,1.617-2.139,3.066-1.642,5.622,1.484,7.634-1.929,11.918-8.987,13.478-5.233,1.158-11.348-3.58-12.227-9.251-0.828-5.343,3.691-11.337,9.031-11.8,2.469-.213,5.01-0.354,7.229,1.176,1.672,1.154,3.048.773,4.4-.63,2.545-2.635,5.092-5.277,7.786-7.755C495.84,488.883,494.662,486.261,495.059,484.5Zm-19.168,31.612c4.742,0.364,8.13-3.915,8.132-7.612,0-3.8-3.812-7.579-7.747-7.768-4.049-.194-8.008,3.73-7.957,7.884A7.309,7.309,0,0,0,475.891,516.111ZM661.378,218.426c0,6.993-.145,13.99.061,20.977a10.458,10.458,0,0,1-3.556,8.344c-8.915,8.734-17.682,17.619-26.5,26.457-1.728,1.734-3.372,3.224-3.147,6.3,0.207,2.807-3.4,5.233-5.845,4.768a5.492,5.492,0,0,1-4.314-6.307c0.433-2.244,1.976-3.954,4.517-3.806,3.258,0.188,5.2-1.452,7.242-3.514,8.54-8.643,17.083-17.284,25.782-25.763a8.57,8.57,0,0,0,2.673-7c-0.16-13.65-.092-27.3.044-40.955,0.029-3-.582-5.357-2.879-7.531-5.559-5.258-10.9-10.749-16.26-16.214-1.585-1.617-2.913-2.775-5.54-1.818a7.9,7.9,0,0,1-5.839-.363,9.167,9.167,0,0,1-4.535-11.394c1.4-3.893,6.606-6.526,10.633-5.378,4.317,1.23,7.425,6.229,6.479,10.461a4.148,4.148,0,0,1-.593,1.364c-1.3,1.937-.436,3.287,1.009,4.705,5.463,5.362,10.726,10.937,16.321,16.156a12.035,12.035,0,0,1,4.29,10.041c-0.29,6.814-.078,13.65-0.078,20.477h0.03Zm169.29,426.258c-9.992,0-19.985.07-29.976-.047a7.6,7.6,0,0,0-6.14,2.5c-5.061,5.3-10.264,10.464-15.543,15.546a7.564,7.564,0,0,0-2.672,6.833,8.758,8.758,0,0,1-12.626,8.48,8.976,8.976,0,0,1-4.358-11.443c1.641-3.96,6.92-6.895,10.7-4.929,3.945,2.055,5.963.533,8.435-2.066,4.589-4.826,9.519-9.33,14.046-14.209a9.668,9.668,0,0,1,7.831-3.328c18.984,0.12,37.969.059,56.954,0.06,1.165,0,2.336-.074,3.5.012a4.07,4.07,0,0,0,4.6-2.8,8.24,8.24,0,0,1,8.353-5.149,9.2,9.2,0,0,1,8.5,7.146c0.829,3.725-1.524,8.064-5.3,9.768a9.154,9.154,0,0,1-10.417-2.4,2.476,2.476,0,0,1-.535-0.835c-0.841-3.156-3.255-3.179-5.869-3.162C850.319,644.722,840.493,644.684,830.668,644.684ZM472.232,170.263c0-1.5-.042-3,0.009-4.5,0.108-3.174-.071-5.829-2.967-8.347-3.5-3.04-2.526-6.569.491-9.563a6.7,6.7,0,0,1,9.434.386c2.42,2.642,2.41,7.658-.658,9.816-2.771,1.949-3.088,4.231-3.057,7.164,0.1,9.667.137,19.337-.038,29a8.8,8.8,0,0,0,2.943,7c7.737,7.579,15.252,15.384,23.041,22.906a9.874,9.874,0,0,1,3.185,7.921c-0.14,13.333,0,26.669-.1,40-0.022,3.272.192,5.909,3.485,7.978,3.147,1.977,3.569,6.9,1.666,9.859a7.883,7.883,0,0,1-14.543-5.121c0.37-2.379,1.414-4.535,3.655-5.645,2.142-1.062,2.571-2.627,2.557-4.855q-0.135-21.99-.011-43.982c0.011-2.1-.988-3.385-2.317-4.713-7.426-7.417-14.683-15.011-22.291-22.234a12.1,12.1,0,0,1-4.071-10.1c0.286-7.646.082-15.311,0.082-22.968h-0.5Zm108.839-6.619c2.122-3.528-1.036-5.548-3.343-7.862-6.7-6.719-13.366-13.474-20.177-20.079a7.811,7.811,0,0,1-2.531-6.161q0.115-22.488-.008-44.975a7.272,7.272,0,0,1,2.433-5.673c7.014-6.879,13.9-13.884,20.895-20.787,1.607-1.587,2.732-2.935,1.854-5.552a6.36,6.36,0,0,1,1.735-6.9,6.789,6.789,0,0,1,7.883-.779c2.627,1.564,4.173,4.584,3.634,7.1-0.619,2.89-3.325,5.611-6.287,5.421-3.615-.231-5.787,1.447-8.1,3.877-5.623,5.9-11.448,11.622-17.362,17.236a11.876,11.876,0,0,0-4.1,9.6c0.262,13.154.177,26.318,0.042,39.476a9.509,9.509,0,0,0,3.11,7.489q10.2,9.921,20.138,20.11c1.834,1.873,3.347,2.527,6.055,1.378,3.973-1.685,8,.1,10.295,3.769,2.207,3.535,1.533,7.83-1.462,10.942-2.91,3.023-8.372,2.848-11.093,1.094C581.714,170.451,580.669,167.62,581.071,163.644Zm87.456-44.271c0,6.5.077,13-.04,19.5a7.29,7.29,0,0,0,2.332,5.735q32.57,32.457,64.991,65.062c1.846,1.86,3.524,1.7,5.717,1.427,3.981-.485,7.326,1.8,7.858,5.223s0.015,6.809-4.908,8.6c-4.279,1.559-10.419-2.972-9.147-7.36,1.112-3.841-.7-5.527-2.841-7.667q-30.587-30.552-61.133-61.144a37.461,37.461,0,0,0-2.834-2.817c-2.285-1.836-2.944-4.174-2.919-7.038,0.1-11.833.052-23.667,0.057-35.5,0-1.667-.007-3.333,0-5,0.006-1.168-.181-2.53.623-3.373,1.628-1.709,1.264-3.393.865-5.463a7.244,7.244,0,0,1,5.457-8.333c3.207-.887,6.934,1.212,8.371,4.713,1.848,4.5-1.81,9.433-6.914,9.638-1.586.064-3.237-1.561-4.715,0.027-1.419,1.526-.782,3.488-0.8,5.266C668.492,107.038,668.528,113.206,668.527,119.373ZM519.056,243.788c0-6.5-.116-13,0.051-19.5a8.676,8.676,0,0,0-2.861-7.019c-7.758-7.551-15.249-15.376-23.039-22.892a9.724,9.724,0,0,1-3.2-7.869c0.175-9.662.033-19.329,0.084-28.994,0.017-3.19.037-5.867-3.384-8.019-3.645-2.293-3.321-6.848-.144-9.888a7.024,7.024,0,0,1,9.825.59c2.2,2.486,1.9,7.877-1.1,9.781-2.44,1.548-2.738,3.382-2.723,5.818,0.061,10,.117,20-0.019,29.994a8.342,8.342,0,0,0,2.744,6.575c7.831,7.708,15.455,15.627,23.346,23.271a9.29,9.29,0,0,1,3,7.46c-0.135,13.829-.035,27.661-0.09,41.492-0.011,2.754.158,4.953,3.055,6.651,3.08,1.806,3.842,5.664,2.7,8.858-0.985,2.75-4.349,5.37-7.307,5.186a8.217,8.217,0,0,1-6.938-4.217,7.017,7.017,0,0,1,.057-7.553c0.509-.84,1.119-1.941,1.927-2.224,4.309-1.514,4.131-4.912,4.056-8.51C518.963,256.455,519.058,250.121,519.056,243.788Zm308.276,42.193c3.37-.34,5.709,2.173,6.7,4.917a6.058,6.058,0,0,1-2.92,7.7c-3.573,1.63-3.4,4.2-3.638,7.264-0.327,4.217,1.223,7.082,4.2,10.015q26.685,26.3,52.983,52.99c2.282,2.305,4.578,3.456,7.856,3.256,4.146-.254,8.321-0.114,12.482-0.039,2.571,0.046,4.515-.228,6.24-2.839,2.424-3.669,5.844-4.023,9.122-1.96a6.931,6.931,0,0,1,3.511,6.686,6.728,6.728,0,0,1-4.853,6.337c-2.947.89-6.208,0.4-7.572-2.224-1.9-3.664-4.692-3.551-7.883-3.5-4.66.07-9.323-.039-13.983,0.044a6.613,6.613,0,0,1-5.3-2.059q-28.347-28.526-56.879-56.865c-1.792-1.782-2.8-3.6-2.5-6.152,0.152-1.315-.009-2.663.033-4,0.094-3,.157-5.695-2.916-7.828-2.478-1.721-2.692-5.241-1.494-7.707C821.88,287.228,824.053,285.938,827.332,285.981ZM389.575,90.013c0,5.165-.194,10.339.066,15.491,0.183,3.647-1.075,6.236-3.648,8.775-14.694,14.5-29.241,29.155-43.838,43.757-0.471.471-.917,0.971-1.421,1.4-1.805,1.553-2.6,3.281-1.655,5.725,1.274,3.3-.384,5.936-2.727,7.9-2.467,2.062-5.562,2.107-8.457.823a7.4,7.4,0,0,1-4-8.7c1.081-4.018,4.751-7.107,8.417-5.984,3.624,1.11,5.448-.4,7.662-2.635,13.947-14.077,27.892-28.161,42.062-42.012,3.373-3.3,4.907-6.66,4.77-11.385-0.291-9.988-.1-19.99-0.092-29.986,0-2.324-.216-4.676,1.9-6.432,1.292-1.071.521-2.381,0.143-3.665-1.873-6.373,2.655-11.484,9.043-10.266,4.334,0.826,6.41,4,5.824,8.912a7.828,7.828,0,0,1-8.1,6.554c-0.484-.046-0.938-0.363-1.425-0.44-2.79-.441-4.1.472-4.461,3.176a22.97,22.97,0,0,0-.076,2.994q-0.007,8,0,15.994h0.012ZM197.961,280.05a7.128,7.128,0,0,1,7.168,5.072c1.2,3.172.738,6.791-2.121,8.5-3.223,1.921-3.328,4.43-3.324,7.546q0.081,76.728.053,153.456c0,2.764-.64,5.7,1.783,7.972a2.333,2.333,0,0,1,.433,1.4,3.843,3.843,0,0,1-1.779,3.839,2.619,2.619,0,0,1-3.2.132,3.743,3.743,0,0,1-1.98-3.731,4.213,4.213,0,0,1,.834-2.288c1.385-1.542,1.282-3.354,1.284-5.181,0-3.5,0-7,0-10.5q0-72.23.039-144.458c0-3.321-.149-5.91-3.719-7.738-3.3-1.69-4.272-5.912-2.921-9.2C191.5,282.442,194.394,279.618,197.961,280.05Zm338.957-3.225a7.321,7.321,0,0,1-7-4.612c-1.575-3.252-.465-5.792,1.5-8.229a5.939,5.939,0,0,1,2.33-1.824c1.917-.729,2.316-2.1,2.312-3.928-0.029-14.825-.058-29.651.028-44.476,0.014-2.362-1.431-3.619-2.818-5.009-7.173-7.19-14.213-14.526-21.636-21.449a13.538,13.538,0,0,1-4.654-11.377c0.329-8.983.084-17.987,0.1-26.982,0.006-2.663-.014-4.837-2.889-6.71-3.835-2.5-3.395-8.143.189-10.6a6.889,6.889,0,0,1,9.038.762,7.121,7.121,0,0,1-.063,9.488,8.661,8.661,0,0,1-1.978,1.5,3.51,3.51,0,0,0-1.637,3.4c0.014,10.827.044,21.655,0,32.482-0.009,2.282,1.376,3.635,2.8,5.056,7.543,7.528,14.958,15.19,22.674,22.535a10.789,10.789,0,0,1,3.552,8.759c-0.157,13.324-.031,26.651-0.038,39.977,0,3.016-.126,5.7,3.308,7.568,2.884,1.572,3.477,6.253,2.14,9.494C543.027,275.449,540.547,276.876,536.918,276.825ZM368.124,539.88c0-15.5-.044-31,0.039-46.5,0.016-2.858-.252-4.914-3.425-6.274-3.467-1.487-4.618-5.708-3.421-9.488a8.283,8.283,0,0,1,7.325-5.119,8.586,8.586,0,0,1,7.869,6.547,6.773,6.773,0,0,1-3.072,7.395c-2.712,1.6-2.815,3.744-2.812,6.318q0.045,47.25,0,94.5c0,2.617.3,4.6,2.983,6.152,5.126,2.972,3.54,11.863-1.483,13.443-3.784,1.191-7.515.42-9.635-2.817-2.264-3.456-2.064-8.378,1.536-10.144,4.387-2.153,4.113-5.361,4.105-9.014q-0.053-22.5-.015-45h0.007ZM317.032,182.549c-6.322,0-12.647.093-18.966-.046a7.77,7.77,0,0,0-6.17,2.522Q275.582,201.543,259.1,217.9c-1.375,1.37-2.463,2.6-1.523,4.737a7.137,7.137,0,0,1,.236,2.961c-0.117,3.769-1.93,6.141-5.228,6.939-3.857.933-7.247-.311-9.123-3.347-1.963-3.178-1.69-6.285.938-9.113,2.014-2.168,4.477-3.862,7.485-2.629,2.573,1.055,4.048.02,5.668-1.615q9.663-9.753,19.394-19.44c4.471-4.473,9.056-8.838,13.38-13.449a8.623,8.623,0,0,1,6.951-2.988q20.214,0.186,40.429.006a7.751,7.751,0,0,1,6.134,2.522c7.206,7.384,14.546,14.638,21.838,21.938,1.518,1.519,2.766,2.83,5.532,2.2,3.017-.684,5.943,2.359,6.046,5.267a5.921,5.921,0,0,1-4.788,5.594c-2.938.466-6.222-1.809-6.158-5.061,0.07-3.487-1.711-5.483-3.882-7.623-6.4-6.308-12.809-12.613-19.015-19.11a9.628,9.628,0,0,0-7.917-3.207c-6.15.2-12.311,0.058-18.467,0.058v0.008Zm538.5,128.184c-1.333,0-2.671.077-4-.017-2.523-.179-4.429.375-5.689,2.95-1.093,2.236-3.27,3.146-5.847,3.081-3.563-.091-6.024-1.684-6.883-4.65-0.907-3.13.424-6.853,2.977-8.334,2.783-1.613,7.29-1.291,9.04,1.388,1.788,2.738,3.978,3.047,6.746,2.939,2.994-.116,6.008.135,8.992-0.074a6.905,6.905,0,0,1,6.143,2.569c0.433,0.5.979,0.919,1.376,1.448,1.314,1.749,2.8,1.959,4.739.939a9.5,9.5,0,0,1,8.178-.259c5.841,2.306,8.456,7.82,6.1,13.724-1.067,2.675-.608,4.381,1.432,6.062a15.8,15.8,0,0,1,2.478,2.461c1.378,1.782,3.164,2.221,5.3,2.12,2.327-.11,4.667-0.106,6.994,0,2.926,0.134,5.23-.2,7.112-3.153,2.007-3.151,6.152-3.376,9.295-1.358a7.082,7.082,0,0,1,2.943,8.259,7.493,7.493,0,0,1-8.891,4.649,5.694,5.694,0,0,1-3.844-2.963c-1.229-2.559-3.241-2.975-5.758-2.862-2.992.135-6-.051-8.993,0.067a6.1,6.1,0,0,1-5.283-2.194c-1.077-1.265-2.431-2.3-3.492-3.572-1.553-1.866-3.077-2.59-5.552-1.407-4.528,2.164-8.353.4-11.7-2.82-3.177-3.056-2.93-6.893-2.167-10.706,0.285-1.418,1.546-2.769.211-4.136-1.705-1.745-3.062-4.089-5.963-4.116-2-.019-4,0-6,0v-0.032Zm21.947,19.339c4.625-.013,7.575-2.8,7.671-7.253a7.981,7.981,0,0,0-7.756-8.031c-3.8.07-7.79,3.9-7.918,7.61C869.329,326.5,873.07,330.085,877.474,330.072ZM510.056,73.936c0-6.995-.05-13.99.025-20.983,0.028-2.607-.107-4.906-2.821-6.35a4.985,4.985,0,0,1-2.347-4.183c-0.346-3.442,1.143-6.35,3.881-7.344a7.087,7.087,0,0,1,8.643,3.075c1.566,2.759,1.191,6.887-1.689,8.382-3.321,1.724-3.18,4.18-3.174,7.029,0.03,14.322-.031,28.644.049,42.965,0.016,2.955-.152,5.642-2.884,7.469-1.634,1.093-1.612,2.562-1.14,4.351,1.828,6.912-2.331,11.748-9.478,11.164-0.5-.04-1-0.073-1.485-0.151-3.774-.6-3.838-0.523-2.608,3.328,1.19,3.723.419,6.942-2.169,9.054a8.045,8.045,0,0,1-9.308.584,8.142,8.142,0,0,1-3.388-8.724c0.608-2.865,3.618-5.329,6.828-5.589,0.166-.013.333-0.009,0.5-0.027,1.609-.177,3.43.584,4.775-0.756,1.567-1.563-.156-3.141-0.345-4.657-0.728-5.855,3.376-11.268,11.015-9.425,3.179,0.767,4.548-.661,6.222-2.458,1.151-1.235.9-2.793,0.9-4.272q0.021-11.241.006-22.482h-0.008Zm-3.029,37.082a7.173,7.173,0,0,0-6.472-6.412c-3.135-.037-6.909,3.659-6.844,6.7,0.067,3.191,3.857,6.575,7.082,6.324S507.128,114.07,507.027,111.018ZM350.159,587.744a4.549,4.549,0,0,1,2.618-4.823c2.32-1.12,2.382-2.958,2.368-5q-0.025-3.5-.027-7,0-47.723,0-95.446c0-1-.059-2,0.01-3,0.165-2.348-.332-4.063-2.869-5.1-3.071-1.26-4.3-3.929-4.137-7.268a7.7,7.7,0,0,1,4.822-6.9,8.425,8.425,0,0,1,9.029,2.514,7.236,7.236,0,0,1,.472,8.793,4.782,4.782,0,0,1-1.586,1.881c-3.226,1.417-3.247,4.062-3.243,7.022q0.087,51.471,0,102.942c0,3.075.252,5.674,2.714,8.088s1.535,6.323-1.277,8.208a5.859,5.859,0,0,1-8.281-1.883A5.114,5.114,0,0,1,350.159,587.744Zm132.664-196.55a7.232,7.232,0,0,0-2.486-3.636q-27-27.04-53.972-54.118c-1.9-1.915-3.5-2.442-6.1-1.573-3.96,1.324-7.84-1.223-9.317-5.141-1.242-3.294.993-8.628,4.714-9.7,4.5-1.3,8.464.352,10.034,4.678,0.444,1.224,1.228,2.463.541,3.829-1.33,2.645.087,4.337,1.848,6.088q13.455,13.389,26.823,26.866,13.936,13.968,27.875,27.934c1.27,1.274,2.848,2.342,2.879,4.466,0.024,1.614,1.571,1.991,2.529,2.851,3.391,3.044,4.021,6.571,1.85,10.15a7.492,7.492,0,0,1-8.078,3.655c-3.475-.64-5.484-2.9-6.261-6.283-0.707-3.078.494-5.532,2.818-7.415A38.03,38.03,0,0,1,482.823,391.194ZM282.988,346.172a5.5,5.5,0,0,1,.249-2.258c1.808-3.14-.24-4.85-2.179-6.776-9.1-9.031-18.046-18.217-27.268-27.12a11.387,11.387,0,0,1-3.695-9.173q0.273-18.735.008-37.477c-0.049-3.721.789-6.568,3.652-9.208,5.746-5.3,11.094-11.026,16.673-16.508A7.772,7.772,0,0,0,273.2,231.6c-0.045-3.63,2.481-5.828,5.574-5.512a5.711,5.711,0,0,1,4.836,6.855,4.291,4.291,0,0,1-5.016,3.8c-2.959-.307-4.593,1.049-6.39,2.884q-8.562,8.74-17.292,17.315a6.745,6.745,0,0,0-2.248,5.24q0.129,19.988,0,39.977a6.8,6.8,0,0,0,2.24,5.261q14.378,14.228,28.6,28.608c1.713,1.729,3.233,2.391,5.7,1.289a9.418,9.418,0,0,1,9,.7,9.852,9.852,0,0,1,4.141,12.534c-1.682,4.158-7.129,7.137-11.512,5.906C286.213,355.152,282.785,352.264,282.988,346.172Zm10.155-6.582c-4.508-.07-7.293,2.432-7.45,6.691a7.265,7.265,0,1,0,14.516.363C300.228,342.25,297.633,339.659,293.143,339.59ZM821.907,661.121c7.157,0,14.317-.109,21.47.053,3.089,0.07,5.3-.35,6.477-3.771,1.166-3.384,4.265-4.4,7.658-4.476a8.06,8.06,0,0,1,7.792,4.383,8.843,8.843,0,0,1-1.8,10.894,8.442,8.442,0,0,1-10.961.622,4.2,4.2,0,0,1-1.452-1.345c-1.794-3.935-5.132-3.871-8.752-3.838q-20.721.186-41.443-.007a8.152,8.152,0,0,0-6.543,2.726c-4.358,4.583-8.868,9.026-13.409,13.429-1.8,1.749-2.717,3.23-1.7,6.029,1.139,3.132-.713,6.15-3.53,7.394a6.345,6.345,0,0,1-7.664-1.776,6.454,6.454,0,0,1-.938-6.6c0.733-2.152,2.393-3.812,4.829-3.649,3.175,0.213,5.181-1.254,7.244-3.443,4.448-4.721,9.259-9.1,13.756-13.776a8.677,8.677,0,0,1,7-2.909C807.258,661.233,814.584,661.119,821.907,661.121ZM741,189.849c2.576-.194,4.63.206,6.29,1.88a6.626,6.626,0,0,1,1.261,8.2c-1.8,3.179-4.81,4.441-8.494,3.554A7.089,7.089,0,0,1,735,196.842a3.855,3.855,0,0,1,.19-1.959c1.488-2.312.017-3.732-1.406-5.176q-4.2-4.267-8.443-8.494c-12.481-12.454-24.9-24.972-37.5-37.3a11.512,11.512,0,0,1-3.813-9.227c0.215-9.318.1-18.645,0.047-27.969-0.018-2.961.18-5.886-.87-8.858-1.038-2.942.92-5.679,3.868-6.458,2.1-.556,4.827,1.083,5.86,3.524a4.788,4.788,0,0,1-3.131,6.338c-2.328.745-2.843,1.972-2.834,3.915,0.047,10.319.192,20.638,0.155,30.955-0.009,2.431,1.071,4,2.675,5.595q22.636,22.545,45.2,45.169C736.73,188.636,738.284,190.874,741,189.849ZM316.82,146.024c3.41-.25,7.414,1.051,10.6-0.558,2.976-1.5,5.165-4.6,7.641-7.053,5.2-5.156,10.336-10.379,15.557-15.514,1.61-1.583,2.841-2.876,1.722-5.544a6.425,6.425,0,0,1,.982-6.17,7.886,7.886,0,0,1,14.1,6.732c-1.193,3.656-5.38,6.517-9,5.277-3.08-1.056-4.641.249-6.459,2.078-6.805,6.845-13.705,13.595-20.436,20.512a7.943,7.943,0,0,1-6.518,2.793c-4.983-.208-9.982.017-14.972-0.074a6.089,6.089,0,0,0-4.821,2.01q-12.977,13.145-26.128,26.115a5.086,5.086,0,0,0-1.655,4.783c0.294,2.356-1.794,4.609-3.895,5.147a5.373,5.373,0,0,1-6.4-2.57c-2.032-3.339.291-8.075,4.32-7.8,3.554,0.245,5.426-1.409,7.567-3.588,7.579-7.718,15.393-15.208,22.864-23.028,2.666-2.79,5.454-4.022,9.208-3.587A51.716,51.716,0,0,0,316.82,146.024ZM531.577,57.8a6.687,6.687,0,0,1-3.969,6.987c-2.652,1.218-3.051,3.005-3.007,5.525,0.11,6.328.037,12.66,0.037,18.991,0,23.489.03,46.978-.049,70.467-0.01,3.055.349,5.151,3.72,6.58,4.175,1.77,5.547,6.422,4.038,10.6-1.215,3.361-5.719,6.064-9.2,5.519-4.2-.657-7.826-4.291-7.847-8.472-0.014-2.874,1.1-5.8,3.811-7.125,2.866-1.4,2.975-3.517,2.97-6.133q-0.069-42.23-.029-84.461c0-1.666-.044-3.333.01-5,0.1-3.029.166-5.688-3.216-7.6-2.778-1.568-3.446-4.834-2.448-7.98a7.86,7.86,0,0,1,6.427-5.614,7.469,7.469,0,0,1,7.427,3.1A6.134,6.134,0,0,1,531.577,57.8ZM524,180c3.7,0.074,6.933-2.867,6.918-6.29-0.014-3.239-3.036-6.094-6.513-6.153-3.882-.066-6.825,2.656-6.779,6.269A6.266,6.266,0,0,0,524,180ZM191.19,189.007c0-8.167-.059-16.334.037-24.5,0.032-2.677-.561-4.345-3.181-5.934-5.655-3.43-5.07-10.74.712-13.619a7.671,7.671,0,0,1,9.407,2.052,8.37,8.37,0,0,1,.132,9.747,3.367,3.367,0,0,1-1.05,1.055c-3.559,1.571-3.593,4.572-3.574,7.866,0.1,16.332-.035,32.667.119,49,0.032,3.445-.727,6.163-3.548,8.214-0.666.484-1.145,1.219-1.792,1.736-3,2.394-4.721,4.99-3.828,9.3,0.731,3.524-2.016,6.789-5.085,7.545a7.877,7.877,0,0,1-9.554-4.363c-1.447-2.935-.764-5.5,1.008-7.924,1.83-2.506,4.629-3.936,7.381-2.942,3.423,1.236,5.2-.183,7.262-2.358,6.749-7.123,5.411-3.717,5.534-13.373C191.261,203.341,191.188,196.173,191.19,189.007ZM170.885,362.1a6.664,6.664,0,0,1-3.449,6.437,4.952,4.952,0,0,0-2.726,4.8q0.12,32.752.008,65.506a4.484,4.484,0,0,0,2.88,4.623,6.938,6.938,0,0,1,4.151,6.826c-0.138,3.64-2.195,6.521-5.52,7.378-4,1.031-7.485-.453-9.275-3.951-1.573-3.071-1.228-7.173,1.747-8.973,3.354-2.029,3.552-4.639,3.539-7.924q-0.119-30.752,0-61.5c0.011-3.125-.014-5.567-3.639-7.146-3.222-1.4-4.007-5.912-2.511-9.159,1.709-3.71,5.3-5.678,8.874-4.861A7.976,7.976,0,0,1,170.885,362.1ZM491.1,67.918c0-4-.092-8,0.032-12a7.715,7.715,0,0,0-2.712-6.527c-3.11-2.867-3.01-5.827-.554-8.835A6.621,6.621,0,0,1,495,38.141a5.549,5.549,0,0,1,4.469,4.244c0.589,2.863.836,6.2-2.1,7.61-3.736,1.791-3.634,4.613-3.606,7.833,0.068,7.666-.091,15.336.083,23a8.759,8.759,0,0,1-2.921,7c-9.627,9.455-19.062,19.106-28.692,28.558-2.155,2.115-2.962,3.932-1.672,6.93,2.69,6.257-2.064,13.112-9.844,14.058-5.325.648-11.113-4.988-11.324-10.556a10.862,10.862,0,0,1,9.742-10.77c1.64-.095,3.419-0.443,4.9.457,2.477,1.5,3.954.128,5.563-1.495,8.444-8.514,16.662-17.281,25.512-25.353,4.774-4.355,6.877-8.977,6.03-15.248a48.991,48.991,0,0,1-.045-6.494H491.1ZM449.981,134a7.555,7.555,0,0,0,8.107-6.908c0.315-4.126-2.093-7.677-7.323-8.341-4.167-.529-8.037,3.277-8.148,7.563A7.5,7.5,0,0,0,449.981,134ZM660.405,557.12c1,0,2-.055,2.992.009,2.386,0.155,3.855-.45,4.838-3.087a8.921,8.921,0,0,1,8.6-5.754,9.765,9.765,0,0,1,6.727,16.675,9.23,9.23,0,0,1-12.263.675,5.606,5.606,0,0,1-2.067-2.1c-1.269-3.855-4.167-4.383-7.513-3.854-6.67,1.055-11.761-1.19-15.974-6.494-2.774-3.492-6.332-6.354-9.45-9.584a4.78,4.78,0,0,0-5.274-1.452c-6.848,1.7-12.8-3.423-13.09-10.413-0.175-4.173,2.964-8.736,7.877-10.3a10.84,10.84,0,0,1,12.085,4.805,10.282,10.282,0,0,1,.237,10.862c-1.6,2.988-1.565,3.065.715,5.37,3.741,3.782,7.688,7.373,11.264,11.3,2.333,2.566,4.884,3.812,8.3,3.349A15.049,15.049,0,0,1,660.405,557.12ZM628.53,539.151c4.757,0.066,8.367-3.12,8.006-7.488-0.387-4.694-3.123-7.069-7.764-7.561-3.9-.414-8.225,3.935-8.149,7.8C620.7,535.821,624.268,539.091,628.53,539.151Zm56.958-167.659c0,5.331.043,10.663-.019,15.994-0.03,2.577.226,4.6,2.818,6.316,3.628,2.408,3.935,6.659,1.5,10.067-2.011,2.82-4.837,3.315-7.974,2.777-3.189-.546-4.875-2.875-5.624-5.691-0.736-2.767.056-5.842,2.592-7,4.395-2,4.061-5.454,4.044-9.131-0.049-10.164.086-20.329-.07-30.49-0.049-3.224.53-5.908,3.214-7.884,1.7-1.249,1.707-2.638,1.214-4.728-1.258-5.329.5-8.867,4.67-10.852a8.582,8.582,0,0,1,9.667,1.565,8.011,8.011,0,0,1,2.222,9.484c-1.444,3.549-3.893,5.723-7.917,5.665a10.914,10.914,0,0,1-2.977-.176c-1.441-.443-2.788-1.241-4.075.258-1.481,1.725-3.412,3.031-3.325,5.831,0.184,5.993.056,12,.056,17.993h-0.02Zm32.358-118.763c0-5.826-.181-11.66.066-17.475,0.154-3.608-.62-6.52-3.578-8.754a15.93,15.93,0,0,1-2.828-2.809c-2.5-3.15-5.28-4.882-9.692-4.262-3.786.532-6.856-3.1-6.8-6.914a7.7,7.7,0,0,1,7.017-7.183,7.555,7.555,0,0,1,7.442,6.652,2.006,2.006,0,0,1-.009.989c-2.022,3.773.691,5.757,2.937,7.944,1.787,1.741,3.438,3.635,5.32,5.263,2.208,1.91,2.863,4.184,2.838,7.05q-0.169,19.724,0,39.45A8.172,8.172,0,0,1,717.9,279.3c-3.524,3.29-6.784,6.86-10.252,10.212a5.619,5.619,0,0,0-1.856,5.735c0.892,4.547-1.885,8.033-6.154,8.326-2.822.195-5.325-.4-6.782-3.123a7.212,7.212,0,0,1,.277-7.991c1.739-2.437,4.246-3.872,7.311-2.837,2.134,0.721,3.434-.028,4.816-1.452,3.244-3.342,6.5-6.677,9.9-9.867a8.086,8.086,0,0,0,2.749-6.595c-0.164-6.321-.052-12.649-0.052-18.975h-0.008ZM277.009,282.937c0,4.325.258,8.669-.067,12.969-0.387,5.133,3.455,7.206,6.5,9.87,0.916,0.8,2.2.1,3.337-.168a7.791,7.791,0,0,1,9.066,4.2c1.694,3.243.928,6.8-2.06,9.39-2.581,2.234-5.643,2.1-8.436.953-2.532-1.039-4.765-3.379-4.055-6.215,1.236-4.932-1.259-7.795-4.5-10.54a7.782,7.782,0,0,1-2.688-6.6c0.131-9.646.109-19.3,0.015-28.942a6.874,6.874,0,0,1,2.316-5.744c1.128-.978,2.055-2.194,3.208-3.136a8.334,8.334,0,0,0,3.347-8.179c-0.534-4.733,2.487-7.645,6.982-7.818,4.767-.183,8.39,2.64,8.6,7.106,0.236,5.046-5.274,9.768-9.545,8.195-3.245-1.195-4.69.321-6.843,2.084-4.11,3.364-5.857,7.3-5.238,12.6a86.326,86.326,0,0,1,.071,9.972h-0.009ZM467.049,443.6c0.092-1.477-.086-2.975.785-4.345a2.75,2.75,0,0,0-.671-3.933c-0.506-.428-0.94-0.941-1.406-1.416-5.634-5.742-5.58-5.742-5.506-13.892,0.068-7.481-.054-14.963.032-22.443a5.375,5.375,0,0,0-2.8-5.269c-3.575-2.24-4.546-5.04-3.659-8.381,1.176-4.432,3.706-6.2,8.432-5.88a7.592,7.592,0,0,1,7.161,7.037,6.877,6.877,0,0,1-3.117,6.445c-2.674,1.567-2.788,3.735-2.766,6.327,0.074,8.651.288,17.314-.075,25.951-0.231,5.521,3.793,7.74,6.948,10.729,1.067,1.011,2.226-.225,3.21-0.607a10.043,10.043,0,0,1,8.184.08c4.914,2.213,7.809,7.368,6.614,12.054-1.342,5.261-6.887,9.3-11.939,8.485C471.456,453.732,466.357,449.5,467.049,443.6Zm10.4,7.553c5.366,0.388,7.886-3.252,8-7.392a7.615,7.615,0,0,0-7.582-7.6c-4.157-.084-8.279,3.761-8.214,7.662A7.829,7.829,0,0,0,477.446,451.157ZM794.8,188.51c-3.682.035-6.371-.458-8.53,2.361-1.349,1.762-5.4,1.157-6.871-.345a5.217,5.217,0,0,1-.3-6.854c1.671-2.161,5.549-2.63,7.491-.305,1.926,2.305,4.114,2.493,6.645,2.414a12.658,12.658,0,0,0,1.5-.009,10.343,10.343,0,0,1,10.418,4.274c1.847,2.386,3.82,3.229,7.26,2.258,6.657-1.879,11.823,1.682,13.72,8.167a8.439,8.439,0,0,1-.863,6.238c-0.873,1.832-.657,3.118.834,4.351,0.511,0.423.942,0.941,1.425,1.4,3.372,3.2,4.488,3.138,7.534-.437,3.2-3.755,7.71-4.216,10.885-1.112,3.017,2.95,3.157,7.279.057,10.121-3.347,3.069-6.154,3.113-9.78.328a8.875,8.875,0,0,1-1.849-2.326,2.477,2.477,0,0,0-2.4-1.459c-2.853.333-4.644-1.306-6.385-3.2-1.869-2.029-3.67-3.248-6.928-2.064a10.128,10.128,0,0,1-10.342-1.781c-3.945-3.386-4.46-7.774-2.872-12.262,0.76-2.147.535-3.431-.942-4.817a12.764,12.764,0,0,1-1.063-1.056C800.934,189.415,798.028,187.422,794.8,188.51Zm28.192,13.9a7.854,7.854,0,0,0-7.9-7.838,8.094,8.094,0,0,0-7.613,7.746,7.767,7.767,0,0,0,8,7.705A7.63,7.63,0,0,0,822.994,202.407ZM312.139,397.718q0-10.485,0-20.971c0-2.488.238-4.794-2.594-6.429-2.319-1.339-1.9-4.154-1.2-6.386,0.581-1.855,2.2-2.762,4.255-2.88a5.356,5.356,0,0,1,5.4,2.8,4.651,4.651,0,0,1-1.1,6.289c-2.146,1.782-2.26,3.8-2.254,6.171,0.035,14.48-.075,28.961.089,43.439a9.9,9.9,0,0,1-3.308,7.813c-12.09,11.906-24.027,23.967-36.032,35.958-1.547,1.545-2.8,3-2.762,5.522,0.042,3.283-2.983,5.89-5.674,5.5a5.719,5.719,0,0,1-4.789-6.016c0.141-3.116,2.91-5.857,5.994-5.074,2.259,0.573,3.357-.138,4.7-1.5q10.542-10.617,21.147-21.17c5.057-5.053,10.021-10.206,15.227-15.1a9.018,9.018,0,0,0,2.945-7.494C312.013,411.369,312.139,404.542,312.139,397.718ZM845.448,503.159c0.085,5.626-2.882,9.392-8.486,10.983-4.217,1.2-9.551-1.2-11.8-5.332a11.83,11.83,0,0,1-1.179-2.739c-0.395-1.606-1.5-2.081-2.929-2.157-1-.053-2-0.058-2.993-0.058-17.63,0-35.261.051-52.892-.029-3-.014-5.206.367-6.974,3.372-1.933,3.284-7.338,3.493-10.186,1.018a7.62,7.62,0,0,1-.513-10.334c2.58-2.74,8.065-3.136,10.156.008,2.2,3.3,4.924,3.241,8.086,3.236,17.63-.03,35.262-0.059,52.892.057,3.2,0.021,5.454-.542,7.366-3.569,4.072-6.444,13.863-6.285,18.262,1.013A6.616,6.616,0,0,1,845.448,503.159Zm-10.843,7.954a7.3,7.3,0,0,0,8.032-7.48c-0.154-4.245-3.25-7.209-7.644-7.752-4.078-.5-8.528,4.023-8.366,8.087A7.763,7.763,0,0,0,834.605,511.113ZM645.92,218.2c0,6-.1,12.006.046,18,0.076,3.034-.643,5.448-3.006,7.524-2.623,2.3-4.905,4.989-7.441,7.4a4.911,4.911,0,0,0-1.686,5.282,8.047,8.047,0,0,1-5.459,9.742c-3.538,1.208-7.523-.712-9.483-4.483a6.984,6.984,0,0,1,.788-7.936c1.919-2.562,4.641-4.326,7.726-3.283,3.2,1.081,4.983-.049,6.9-2.209,2.749-3.105,6.977-5.333,8.287-9.146,1.235-3.6.477-7.9,0.494-11.892,0.037-9-.083-18.006.063-27a8,8,0,0,0-2.989-6.959c-1.415-1.149-2.6-2.577-3.908-3.863s-2.441-2.387-4.715-1.992c-2.3.4-4.058-1.252-5.081-3.324a4.229,4.229,0,0,1,.554-4.682c1.309-1.731,2.909-2.729,5.146-2.25,2.182,0.467,4.6,2.74,4.2,4.917-0.612,3.326,1.241,5.037,3.319,6.622,5.034,3.841,7.325,8.484,6.384,15.052C645.373,208.448,645.919,213.361,645.92,218.2ZM447.729,97.006a2.96,2.96,0,0,1,1.348.028c3.676,1.973,5.743-.4,8.015-2.718,6.405-6.529,12.915-12.954,19.379-19.426,1.285-1.286,2.631-2.463,2.623-4.589-0.009-2.4-.193-4.143-2.819-5.586-6.518-3.579-4.621-10.9-.489-13.491a7.768,7.768,0,0,1,9.964,1.309c2.567,2.805,2.92,7.986.023,10.4-3.028,2.522-4.963,5.03-4.252,9.138,0.3,1.713-1.254,2.61-2.285,3.647q-9.669,9.73-19.372,19.426c-1.056,1.06-2.031,2.2-3.127,3.219a4.03,4.03,0,0,0-1.339,4.321c0.875,4.611-.7,7.359-4.28,9.058a7.788,7.788,0,0,1-8.748-1.37,8.014,8.014,0,0,1-1.753-8.739C441.987,98.749,444.111,96.8,447.729,97.006Zm466.834,223.8c0.025,3.813-1.6,6.2-4.691,7.362-2.771,1.043-6.468.213-7.83-2.627-2.173-4.528-5.931-7.521-9.266-10.918-6.287-6.405-12.8-12.586-19.128-18.954a6.55,6.55,0,0,0-5.3-2.114c-2.655.114-5.323,0.113-7.978,0-3.086-.126-5.447.158-7.491,3.35-2.433,3.8-7.2,3.463-10.319.126-2.582-2.761-2.339-7.961.48-10.317,3.245-2.71,8.269-2.369,10.41,1.361,1.588,2.768,3.562,3.025,6.145,2.975,3.491-.066,6.988.1,10.473-0.056a6.416,6.416,0,0,1,5.22,2.241c7.232,7.35,14.551,14.614,21.86,21.888a9.914,9.914,0,0,0,3.012,2.524c1.559,0.583,1.97-1.424,3.062-2.073,2.412-1.434,4.788-2.212,7.483-.715C913.252,316.278,914.712,318.279,914.563,320.805ZM382.668,614.721c-2.878-.238-4.719-1.323-5.76-3.756-1.019-2.381-1.08-4.737,1.226-6.225,3.145-2.028,3-4.69,3-7.7q-0.056-51.7-.036-103.407c0-2.926.432-5.839-1.662-8.546a3.33,3.33,0,0,1,1.174-4.769,4.308,4.308,0,0,1,5.257,1.5,2.472,2.472,0,0,1-.221,3.586c-2.092,1.932-2.026,4.34-2.024,6.87q0.042,52.953,0,105.9c0,2.534-.018,4.806,2.545,6.538,2.2,1.488,1.961,4.188,1.179,6.417A5.863,5.863,0,0,1,382.668,614.721Zm410.37-406.577c-0.858.637-1.746,1.387-2.718,2-3.654,2.31-7.755,1.388-9.893-2.183a7.1,7.1,0,0,1,2.313-9.936c3.719-2.187,8.683-1.069,10.01,3.033,1.173,3.625,3.65,5.82,6.047,8.252,6.651,6.749,13.431,13.372,20.052,20.15,1.753,1.794,3.547,2.8,6.114,2.6a53.419,53.419,0,0,1,6.976.007c3.267,0.175,5.811-.283,7.971-3.467,2.392-3.527,7.047-3.412,10.064-.587a7.214,7.214,0,0,1-.031,10.6c-3.064,2.8-7.721,2.886-10.066-.671-2.155-3.267-4.759-3.486-7.988-3.428-3.811.068-7.923,0.762-11.358-.413-3.464-1.184-5.625-4.993-8.341-7.667-5.1-5.015-10.1-10.122-15.183-15.148C795.846,210.14,794.893,208.691,793.038,208.144ZM355.067,58.123c0-3.024-.049-4.855.022-6.681,0.031-.807.027-2,0.513-2.342,2.794-1.973,1.678-4.54,1.473-7.1-0.371-4.642,1.545-7.262,5.555-8.073,4.591-.928,7.918.876,9.454,5.129,1.852,5.128-3.083,10.974-8.622,10.214-5-.685-5.719-0.082-5.8,4.98-0.045,2.993-.18,6,0.03,8.977a7.607,7.607,0,0,1-2.555,6.186c-0.818.826-1.714,1.575-2.536,2.4-2.212,2.216-4.072,4.237-3.092,8.06,1.105,4.3-2.715,8.327-7.727,8.287a7.779,7.779,0,0,1-7.593-9.139,7.623,7.623,0,0,1,9.509-6.214c2.35,0.616,3.823.033,5.669-1.529C353.925,67.425,356.448,63.022,355.067,58.123Zm444.178,112.5c-1.661,0-3.327.067-4.984-.016a5.2,5.2,0,0,0-5.3,2.735,6.627,6.627,0,0,1-7.787,2.938,7.541,7.541,0,0,1-5.187-6.627,7.228,7.228,0,0,1,4.558-7.033,6.2,6.2,0,0,1,8.236,2.475c1.552,2.8,3.606,2.974,6.176,2.924,3.322-.064,6.653.112,9.969-0.052a7.435,7.435,0,0,1,6.126,2.551c5.915,6.071,11.985,11.99,18,17.964,0.943,0.936,1.885,1.876,2.866,2.772s1.953,1.686,3.511.97a7.273,7.273,0,0,1,2.941-.38,6.676,6.676,0,0,1,7.073,6.717c0.086,4.27-2.769,7.095-7.178,7.1-4.175.008-7.992-3.22-7.108-7.076,0.826-3.6-.955-5.179-2.934-7.15-5.655-5.629-11.436-11.143-16.875-16.975-2.733-2.931-5.639-4.441-9.61-3.856A17.243,17.243,0,0,1,799.245,170.623ZM69.262,327.016c0-3.493-.1-6.989.03-10.477a5.417,5.417,0,0,0-3.032-5.545c-4.749-2.894-5.26-8.072-1.75-11.858a8.064,8.064,0,0,1,11.54-.151c2.844,3.109,2.654,9.4-.975,11.5-3.068,1.777-3.39,3.983-3.34,6.942,0.111,6.652.126,13.308,0,19.958-0.053,2.694.444,4.633,3.053,6.121,3.392,1.936,3.524,5.426,2.8,8.829-0.56,2.646-3.778,5.006-6.619,5.236a7.779,7.779,0,0,1-8.144-5.239c-1.2-2.958-.368-7.285,2.72-8.733,3.7-1.735,3.862-4.359,3.742-7.6C69.177,333.007,69.264,330.01,69.262,327.016ZM463.14,59.72c0-.978-0.05-1.484.009-1.977,0.287-2.381-.423-3.878-2.818-5.054-4.832-2.373-5.415-10.855.822-13.708a7.712,7.712,0,0,1,9.649,2.6,7.5,7.5,0,0,1-.681,9.959,5.724,5.724,0,0,1-1.586,1.2A4.231,4.231,0,0,0,466,57.67c1.147,6.239-1.867,10.5-6.309,14.191-0.638.53-1.15,1.209-1.77,1.761-1.731,1.542-2.556,3.007-1.62,5.629,1.062,2.975-1.115,6.561-4.134,8.277a7.376,7.376,0,0,1-8.379-.675c-3.22-2.474-3.357-5.485-2.539-9.009,0.707-3.05,3.759-4.893,7.276-4.88a1.418,1.418,0,0,1,.5.017c3.941,1.6,6.5-.391,8.752-3.3a9.454,9.454,0,0,1,1.771-1.757C462.465,65.725,463.789,62.9,463.14,59.72Zm331.8,323.869c0-2.5-.1-5,0.029-7.487a4.146,4.146,0,0,0-2.818-4.587c-5.489-2.481-6.1-8.214-4.6-12.2,1.269-3.382,5.6-6.29,8.922-6.187,3.524,0.11,7.81,3.216,8.8,6.38,1.347,4.292.069,9.7-3.816,11.355-4.077,1.735-4.158,4.438-4.011,7.873a91.506,91.506,0,0,1-.019,9.979,8.142,8.142,0,0,0,3,7.466c2.042,1.689,3.807,3.713,5.69,5.594,1.615,1.614,2.956,3.105,5.835,2.928,2.932-.181,4.932,2.915,4.421,5.459a4.839,4.839,0,0,1-6.135,3.574c-2.1-.534-3.23-1.7-3.214-4.352a7,7,0,0,0-2.585-5.63,43.758,43.758,0,0,0-3.555-3.49c-5.174-3.643-6.9-8.591-5.958-14.681A13.129,13.129,0,0,0,794.938,383.589ZM219.566,370c-1.979,3.074.855,4.886,2.966,6.974,2.129,2.105,4.146,4.338,6.407,6.289a7.412,7.412,0,0,1,2.77,7.027,2.772,2.772,0,0,0,0,.5c0.212,3.8-1.161,8.013.615,11.31,1.744,3.238,5.083,5.624,7.755,8.352,2.91,2.97,5.886,5.875,8.777,8.863a7.835,7.835,0,0,0,6.034,2.832c3.6-.015,5.1,1.9,4.966,5.348-0.132,3.344-2.072,5.182-5.4,5.118-3.028-.059-5.594-2.266-5.1-5.382,0.508-3.23-1.062-4.886-2.985-6.778-5.1-5.017-10.076-10.155-15.2-15.148a5.868,5.868,0,0,1-2.011-4.814c0.142-3.322-.092-6.66.061-9.981a6.816,6.816,0,0,0-2.408-5.7c-2.438-2.261-4.795-4.617-7.069-7.043-1.629-1.74-3.085-2.232-5.644-1.486a7.6,7.6,0,0,1-9.877-6.434,7.827,7.827,0,0,1,7.3-8.837A7.637,7.637,0,0,1,219.566,370ZM722,166.183c1.378-2.121-.508-3.405-1.893-4.807-4.679-4.735-9.216-9.632-14.162-14.07-3.167-2.841-4.165-5.934-4.044-10.067,0.268-9.149.056-18.31,0.105-27.466,0.012-2.134-.362-3.553-2.6-4.748-3.454-1.845-4.394-5.592-3.03-9.05,1.167-2.957,3.917-4.37,7.777-3.994a6.883,6.883,0,0,1,5.5,9.174,8.008,8.008,0,0,1-3.413,4.135,3.49,3.49,0,0,0-1.7,3.336q0.023,15.732,0,31.464a5.284,5.284,0,0,0,1.816,3.93c5.436,5.389,10.875,10.777,16.226,16.25a5.564,5.564,0,0,0,4.951,1.58c2.662-.222,4.93.545,5.941,3.418a6.015,6.015,0,0,1-1.516,6.814,5.689,5.689,0,0,1-6.5.972,5.4,5.4,0,0,1-3.473-5.541C722.011,167.181,722,166.847,722,166.183ZM692.972,253.4c0-4.666.053-9.333-.021-14-0.04-2.5-.139-2.5-2.9-2.405-5.268.177-8.326-2.758-8.043-7.72,0.234-4.116,3.337-6.58,7.911-6.281,3.575,0.233,7.3,4.076,6.41,7.424-1.152,4.321-.655,8.595-0.726,12.883-0.133,8-.146,16,0.006,23.994,0.052,2.719-.56,4.866-2.735,6.541a8.527,8.527,0,0,0-3.429,7.762,7,7,0,0,1-7.06,6.882c-3.665-.264-7.184-4.257-6.931-7.864,0.281-4.015,3.155-6.6,7.3-6.563,0.333,0,.666.016,1,0.013,1.814-.014,3.569,1.6,5.45-0.548,2.115-2.414,4.223-4.428,3.868-8.13-0.381-3.963-.086-7.991-0.086-11.99h-0.011Zm56.016-44.442a3.819,3.819,0,0,1,1.648-3.851c2.365-1.323,2.382-3.3,2.352-5.526-0.068-5.16-.032-10.322-0.033-15.483,0-15.649-.055-31.3.046-46.947,0.02-3.149-.252-5.518-3.4-7.485-3.436-2.146-3.62-6.668-1.236-9.682a7.01,7.01,0,0,1,9.752-1.706c3.964,2.541,4.466,8.671.426,11.421-2.692,1.834-3.092,3.841-3.083,6.654q0.1,30.966.013,61.931c-0.006,2.861,0,5.407,2.506,7.629,2.024,1.8,1.548,4.849-.293,6.665a5.613,5.613,0,0,1-6.863.365A4.517,4.517,0,0,1,748.988,208.954Zm123.4,45.6c-3.3-.267-6.37,1.144-9.742,1.042-9.646-.291-19.307-0.078-28.961-0.129-2.552-.014-4.661.09-6.379,2.686-1.8,2.713-5.849,3.218-8.51,1.856a7.2,7.2,0,0,1-3.833-7.459,6.832,6.832,0,0,1,5.787-6.023,6.527,6.527,0,0,1,7.195,3.275,5.167,5.167,0,0,0,5.185,2.955c10.32-.072,20.642-0.023,30.964-0.026a11.14,11.14,0,0,0,1.986-.121c1.106-.2,1.823-0.751,1.507-2.051a14.8,14.8,0,0,1-.606-2.9,7.465,7.465,0,0,1,7.077-7.559c3.389-.029,7.133,3.513,7.352,6.955a7.276,7.276,0,0,1-7.026,7.494C873.718,254.579,873.051,254.554,872.386,254.554ZM766.947,160.276c0-4.49-.017-8.981,0-13.471a3.226,3.226,0,0,0-2.109-3.474,6.342,6.342,0,0,1-3.928-6.358c0.064-3.6,1.63-6.1,4.559-6.872,3.433-.91,6.686.159,8.418,2.765a6.849,6.849,0,0,1-.732,8.651,8.09,8.09,0,0,1-1.86,1.64,3.42,3.42,0,0,0-1.814,3.263q0.039,13.472-.008,26.944a3.429,3.429,0,0,0,1.757,3.3,10.093,10.093,0,0,1,1.978,1.485,6.887,6.887,0,0,1,.088,10.176,6.978,6.978,0,0,1-10.224-.08c-2.92-3.028-3.149-7.68.328-10.057,3.331-2.277,3.726-5,3.575-8.431C766.841,166.6,766.95,163.437,766.947,160.276Zm-32.042-13.95c1.332-2.247-.153-3.869-1.928-5.234-2.487-1.914-3.21-4.323-3.076-7.405,0.224-5.147-.038-10.313.1-15.465,0.07-2.556-.4-4.391-3.036-5.514-2.589-1.1-3.282-3.567-3.239-6.234,0.068-4.124,2.771-6.75,6.953-6.756,4.278-.007,6.844,2.506,6.919,6.717,0.048,2.663-.582,4.982-3.147,6.287-1.779.905-1.992,2.407-1.975,4.171,0.056,5.655.175,11.317-.038,16.964-0.1,2.586,1.464,3.884,2.9,5.469a5.2,5.2,0,0,0,5.231,1.769c5.58-.882,8.416,2.656,8.219,7.326-0.157,3.722-3.667,7.292-7.113,6.854-4.128-.525-7.26-3.452-6.786-7.167A16.177,16.177,0,0,0,734.905,146.326Zm29.585,88.043c0,1.827.034,3.656-.016,5.482-0.022.816,0.091,1.99-.376,2.382-2.73,2.288-2.86,5.16-2.744,8.432,0.1,2.863-2.931,5.508-5.814,5.875-3.716.473-6.373-1.067-7.918-4.589a6.791,6.791,0,0,1,2.25-7.947c2.042-1.42,4.1-2.407,6.91-1.284,3.119,1.246,4.946-.271,5.142-3.794,0.156-2.816,0-5.648.036-8.472,0.031-2.773-.4-5.564,1.994-7.878,2.316-2.238-.884-4.922.251-7.544,1.564-3.615,5.509-5.923,9.257-4.876a7.608,7.608,0,0,1,4.925,8.262,7.189,7.189,0,0,1-8.475,5.727c-1.339-.288-2.475-0.8-3.672.312a4.874,4.874,0,0,0-1.756,3.93c0.067,1.992.016,3.988,0.016,5.982h-0.01Zm-56.453,387.3c-2.377-.441-4.054.511-5.73,2.968-2.646,3.879-6.97,3.935-10.3.829-2.926-2.731-2.867-8.106.118-10.643,3.2-2.718,8.222-2.394,10.438,1.245,1.57,2.581,3.4,3.413,6.063,3.03,3.98-.574,7.217.611,9.464,3.956,1.783,2.655,4.116,2.494,6.89,2.172,4.07-.472,6.777,1.552,7.452,4.924,0.892,4.456-.863,7.506-5.1,8.862a6.978,6.978,0,0,1-8.29-4.377,6.692,6.692,0,0,1-.308-4.383,3.579,3.579,0,0,0-.408-3.319C715.95,623.3,712.921,621.659,708.037,621.67ZM357.684,223.787c-0.007,2.951-2.4,5.613-5.122,5.692a5.39,5.39,0,0,1-5.336-5.385c0.215-3.243-1.246-5.287-3.41-7.277-2.324-2.139-4.573-4.376-6.7-6.709a7.447,7.447,0,0,0-6.082-2.669c-9.481.146-18.966,0.033-28.449,0.088-4.259.025-4.528,0.276-4.867,4.38a6.326,6.326,0,0,1-1.212,3.7,6.091,6.091,0,0,1-6.785,1.624c-2.042-.881-3.027-3.089-2.632-5.9a4.456,4.456,0,0,1,4.642-4.245c2.195-.1,4.229-0.145,6.017-1.764,1-.906,2.536-0.654,3.86-0.65,10.148,0.024,20.3.13,30.444,0.064a7.788,7.788,0,0,1,6.109,2.711c3.089,3.259,6.326,6.379,9.513,9.546a4,4,0,0,0,3.889,1.349A5.239,5.239,0,0,1,357.684,223.787Zm469.245,41.988c0-2.514,1.613-4.756,4.319-6.1a6.412,6.412,0,0,1,7.428,1.011,8.832,8.832,0,0,1,1.92,2.256c0.877,1.532,2.213,1.868,3.794,1.866q11.49-.014,22.981-0.007a3.6,3.6,0,0,0,3.814-2.483,5.067,5.067,0,0,1,5.6-3.255c2.844,0.3,4.625,2.4,4.619,5.467-0.008,3.306-1.532,4.952-4.772,5.081-1.156.046-2.519,0.323-3.38-.5-2.1-2-4.619-1.548-7.076-1.555-6.828-.02-13.657.052-20.484-0.04-2.465-.033-4.271.274-5.742,2.787a6.268,6.268,0,0,1-7.783,2.717A7.414,7.414,0,0,1,826.929,265.775Zm42.32,10.663c-2.163,0-4.327.032-6.489-.009-2.517-.047-4.654.109-6.338,2.687-1.513,2.314-5.675,2.318-7.649.634a5.336,5.336,0,0,1-.756-7.214c1.951-2.643,4.757-3.468,7.347-1.379,2.351,1.9,4.773,2.05,7.438,1.959,5.489-.189,10.942,1.031,16.441.4,3.51,2.592,7.735,2.064,11.688,2.817,2.647,0.5,4.78,4.525,4.41,7.121a7.514,7.514,0,0,1-6.284,6.159c-5.517.5-8.778-2.963-8.065-8.555,0.535-4.195.332-4.482-3.756-4.586-2.661-.068-5.325-0.013-7.987-0.013v-0.021ZM280.482,480.6a5.927,5.927,0,0,1-5.117-4.141c-0.581-2.313,0-4.6,1.964-5.768,6.131-3.658,10.268-9.4,15.282-14.206,7.81-7.483,15.226-15.376,22.946-22.957,2.216-2.177,3.961-4.125,3.773-7.618-0.146-2.7,2.758-4.811,5.42-4.793a5.21,5.21,0,0,1,5.237,4.441c0.671,3.142-1.436,6.368-4.714,6.123-3.489-.26-5.5,1.358-7.668,3.556q-15.62,15.816-31.421,31.453c-1.864,1.843-2.587,3.051-.94,5.767A5.357,5.357,0,0,1,280.482,480.6ZM234.5,370.715c-1.25,2,.318,3.158,1.566,4.1,3.156,2.372,3.827,5.479,3.679,9.212-0.136,3.46-1.111,7.312.436,10.328,1.523,2.97,4.6,5.145,7,7.663,0.573,0.6,1.182,1.168,1.749,1.775,1.494,1.6,2.865,2.855,5.534,2.463a4.887,4.887,0,0,1,5.3,4.193c0.578,3.105-.535,5.2-3.386,6.375-3.274,1.348-7.184-.826-7.01-4.554,0.165-3.532-1.438-5.569-3.675-7.651-1.822-1.7-3.432-3.636-5.34-5.223a9.1,9.1,0,0,1-3.431-8.311c0.207-2.643-.158-5.332.079-7.97,0.366-4.074-2.746-5.766-5.091-7.991-0.692-.656-1.562.116-2.345,0.148a6.41,6.41,0,0,1-6.249-4.658c-0.533-2.291,1.377-5.278,3.954-6.184C231.039,363.1,234.77,366.325,234.5,370.715Zm420-302.5a4.967,4.967,0,0,1-4.266,5.224c-0.813.127-1.664-.017-2.486,0.074-2.5.276-3.019,0.824-3.184,3.47-0.082,1.325-.026,2.658-0.026,3.987,0,5.816.046,11.633-.02,17.448-0.032,2.734.136,4.764,3.178,6.448,4.563,2.526,4.451,6.085,3.475,9.909-0.89,3.488-5.366,6.062-9.008,5.71a9.564,9.564,0,0,1-8.045-7.12,8.12,8.12,0,0,1,4.3-8.783c3.076-1.366,3.572-3.329,3.515-6.238-0.139-6.977-.055-13.958-0.041-20.937,0-1.981-.186-4.016,1.608-5.509,1.024-.852.648-2.015,0.7-3.175a5.308,5.308,0,0,1,3.784-5.245,4.748,4.748,0,0,1,5.29,1.612A3.688,3.688,0,0,1,654.5,68.215Zm-11.564,49.778c2.931,0.428,6.18-1.8,6.469-6.044,0.223-3.279-2.855-6.325-6.235-6.424a6.189,6.189,0,0,0-6.628,6.408A6.018,6.018,0,0,0,642.939,117.993ZM301.863,231.276a7.711,7.711,0,0,1-7.694,8.04c-3.865-.011-8.056-4.163-7.958-8.087a8.526,8.526,0,0,1,8.014-8.04C298.332,222.806,301.876,226.835,301.863,231.276Z" transform="translate(-62.219 -33.688)"/>
</svg>
